<svg xmlns="http://www.w3.org/2000/svg" xmlns:xlink="http://www.w3.org/1999/xlink" width="60" zoomAndPan="magnify" viewBox="0 0 45 44.999999" height="60" preserveAspectRatio="xMidYMid meet" version="1.0"><defs><clipPath id="10503c1117"><path d="M 12.53125 11.105469 L 32.78125 11.105469 L 32.78125 33.605469 L 12.53125 33.605469 Z M 12.53125 11.105469 " clip-rule="nonzero"/></clipPath></defs><g clip-path="url(#10503c1117)"><path fill="#0f595b" d="M 14.367188 31.292969 L 12.523438 11.1875 L 32.785156 11.1875 L 30.941406 31.292969 L 22.644531 33.527344 Z M 14.367188 31.292969 " fill-opacity="1" fill-rule="nonzero"/></g><path fill="#1b6b6d" d="M 29.359375 30.011719 L 30.9375 12.832031 L 22.65625 12.832031 L 22.65625 31.816406 Z M 29.359375 30.011719 " fill-opacity="1" fill-rule="nonzero"/><path fill="#ebebeb" d="M 22.648438 15.296875 L 16.292969 15.296875 L 16.980469 22.753906 L 22.65625 22.753906 L 22.65625 20.289062 L 19.300781 20.289062 L 19.066406 17.761719 L 22.65625 17.761719 L 22.65625 15.296875 Z M 22.65625 26.683594 L 22.644531 26.6875 L 19.820312 25.945312 L 19.640625 23.980469 L 17.09375 23.980469 L 17.449219 27.851562 L 22.644531 29.246094 L 22.65625 29.242188 Z M 22.65625 26.683594 " fill-opacity="1" fill-rule="nonzero"/><path fill="#ffffff" d="M 22.648438 22.753906 L 25.769531 22.753906 L 25.484375 25.953125 L 22.652344 26.695312 L 22.652344 29.257812 L 27.855469 27.859375 L 28.550781 20.285156 L 22.65625 20.285156 Z M 28.941406 15.957031 L 29 15.296875 L 22.644531 15.296875 L 22.644531 17.761719 L 28.773438 17.761719 L 28.824219 17.207031 Z M 28.941406 15.957031 " fill-opacity="1" fill-rule="nonzero"/></svg>