<svg xmlns="http://www.w3.org/2000/svg" xmlns:xlink="http://www.w3.org/1999/xlink" width="60" zoomAndPan="magnify" viewBox="0 0 45 44.999999" height="60" preserveAspectRatio="xMidYMid meet" version="1.0"><defs><clipPath id="c5d820202a"><path d="M 11.214844 11.214844 L 33.714844 11.214844 L 33.714844 33.714844 L 11.214844 33.714844 Z M 11.214844 11.214844 " clip-rule="nonzero"/></clipPath></defs><g clip-path="url(#c5d820202a)"><path fill="#0f595b" d="M 32.285156 11.214844 L 12.644531 11.214844 C 11.855469 11.214844 11.214844 11.855469 11.214844 12.644531 L 11.214844 32.285156 C 11.214844 33.074219 11.855469 33.714844 12.644531 33.714844 L 32.285156 33.714844 C 33.074219 33.714844 33.714844 33.074219 33.714844 32.285156 L 33.714844 12.644531 C 33.714844 11.855469 33.074219 11.214844 32.285156 11.214844 Z M 23.535156 28.453125 C 23.535156 30.597656 22.28125 31.570312 20.445312 31.570312 C 18.789062 31.570312 17.59375 30.460938 17.105469 29.429688 L 18.792969 28.410156 C 19.117188 28.984375 19.609375 29.429688 20.320312 29.429688 C 21 29.429688 21.390625 29.164062 21.390625 28.128906 L 21.390625 21.390625 L 23.535156 21.390625 Z M 28.183594 31.570312 C 26.285156 31.570312 25.207031 30.613281 24.605469 29.429688 L 26.214844 28.355469 C 26.652344 29.074219 27.128906 29.757812 28.136719 29.757812 C 28.984375 29.757812 29.429688 29.332031 29.429688 28.746094 C 29.429688 28.050781 28.96875 27.800781 28.035156 27.390625 L 27.527344 27.171875 C 26.050781 26.542969 25.070312 25.757812 25.070312 24.09375 C 25.070312 22.558594 26.238281 21.390625 28.0625 21.390625 C 29.363281 21.390625 30.296875 21.84375 30.96875 23.027344 L 29.378906 24.050781 C 29.027344 23.421875 28.652344 23.175781 28.0625 23.175781 C 27.464844 23.175781 27.085938 23.554688 27.085938 24.050781 C 27.085938 24.664062 27.464844 24.914062 28.34375 25.292969 L 28.851562 25.511719 C 30.589844 26.253906 31.570312 27.015625 31.570312 28.722656 C 31.570312 30.5625 30.125 31.570312 28.183594 31.570312 Z M 28.183594 31.570312 " fill-opacity="1" fill-rule="nonzero"/></g></svg>