<svg xmlns="http://www.w3.org/2000/svg" xmlns:xlink="http://www.w3.org/1999/xlink" width="60" zoomAndPan="magnify" viewBox="0 0 45 44.999999" height="60" preserveAspectRatio="xMidYMid meet" version="1.0"><defs><clipPath id="1024845406"><path d="M 31 21 L 35.625 21 L 35.625 25.695312 L 31 25.695312 Z M 31 21 " clip-rule="nonzero"/></clipPath><clipPath id="0b467f8a88"><path d="M 10.875 18.945312 L 31 18.945312 L 31 25.695312 L 10.875 25.695312 Z M 10.875 18.945312 " clip-rule="nonzero"/></clipPath><clipPath id="f6812471d3"><path d="M 16 21 L 29 21 L 29 25.695312 L 16 25.695312 Z M 16 21 " clip-rule="nonzero"/></clipPath></defs><rect x="-4.5" width="54" fill="#ffffff" y="-4.5" height="53.999999" fill-opacity="1"/><rect x="-4.5" width="54" fill="#ffffff" y="-4.5" height="53.999999" fill-opacity="1"/><rect x="-4.5" width="54" fill="#ffffff" y="-4.5" height="53.999999" fill-opacity="1"/><g clip-path="url(#1024845406)"><path fill="#7bb9bb" d="M 33.644531 21.347656 C 33.585938 21.347656 33.527344 21.359375 33.476562 21.386719 L 31.835938 22.285156 C 31.726562 22.34375 31.664062 22.453125 31.664062 22.570312 L 31.664062 24.367188 C 31.664062 24.484375 31.726562 24.59375 31.835938 24.652344 L 32.261719 24.886719 C 32.472656 24.984375 32.546875 24.984375 32.640625 24.984375 C 32.949219 24.984375 33.125 24.804688 33.125 24.496094 L 33.125 22.722656 C 33.125 22.699219 33.105469 22.679688 33.078125 22.679688 L 32.871094 22.679688 C 32.847656 22.679688 32.824219 22.699219 32.824219 22.722656 L 32.824219 24.496094 C 32.824219 24.632812 32.671875 24.773438 32.429688 24.65625 L 31.984375 24.40625 C 31.96875 24.398438 31.957031 24.386719 31.957031 24.367188 L 31.957031 22.570312 C 31.957031 22.554688 31.96875 22.535156 31.984375 22.527344 L 33.621094 21.628906 C 33.636719 21.621094 33.65625 21.621094 33.671875 21.628906 L 35.308594 22.527344 C 35.324219 22.535156 35.335938 22.554688 35.335938 22.570312 L 35.335938 24.367188 C 35.335938 24.386719 35.328125 24.402344 35.3125 24.410156 L 33.671875 25.308594 C 33.65625 25.316406 33.636719 25.316406 33.621094 25.308594 L 33.199219 25.070312 C 33.1875 25.0625 33.171875 25.0625 33.160156 25.070312 C 33.042969 25.132812 33.019531 25.140625 32.910156 25.175781 C 32.882812 25.183594 32.84375 25.199219 32.925781 25.242188 L 33.476562 25.550781 C 33.527344 25.578125 33.585938 25.59375 33.644531 25.59375 C 33.707031 25.59375 33.765625 25.578125 33.816406 25.550781 L 35.457031 24.652344 C 35.5625 24.59375 35.628906 24.484375 35.628906 24.367188 L 35.628906 22.570312 C 35.628906 22.453125 35.5625 22.34375 35.457031 22.285156 L 33.816406 21.386719 C 33.765625 21.359375 33.707031 21.347656 33.644531 21.347656 Z M 34.085938 22.628906 C 33.617188 22.628906 33.339844 22.820312 33.339844 23.132812 C 33.339844 23.472656 33.617188 23.566406 34.0625 23.609375 C 34.601562 23.660156 34.640625 23.734375 34.640625 23.835938 C 34.640625 24.007812 34.496094 24.082031 34.152344 24.082031 C 33.71875 24.082031 33.621094 23.980469 33.589844 23.773438 C 33.585938 23.753906 33.570312 23.734375 33.542969 23.734375 L 33.332031 23.734375 C 33.300781 23.734375 33.285156 23.75 33.28125 23.78125 C 33.28125 24.042969 33.433594 24.355469 34.152344 24.355469 C 34.667969 24.355469 34.96875 24.160156 34.96875 23.820312 C 34.96875 23.484375 34.726562 23.394531 34.222656 23.332031 C 33.714844 23.265625 33.667969 23.234375 33.667969 23.121094 C 33.667969 23.03125 33.707031 22.90625 34.085938 22.90625 C 34.421875 22.90625 34.546875 22.972656 34.597656 23.1875 C 34.601562 23.210938 34.621094 23.226562 34.640625 23.226562 L 34.855469 23.226562 C 34.867188 23.226562 34.878906 23.21875 34.890625 23.210938 C 34.898438 23.199219 34.90625 23.1875 34.902344 23.175781 C 34.871094 22.804688 34.609375 22.628906 34.085938 22.628906 Z M 34.085938 22.628906 " fill-opacity="1" fill-rule="nonzero"/></g><g clip-path="url(#0b467f8a88)"><path fill="#1b6b6d" d="M 24 18.988281 C 23.980469 18.988281 23.960938 18.992188 23.945312 19.003906 C 23.910156 19.023438 23.894531 19.050781 23.894531 19.089844 L 23.894531 21.621094 C 23.894531 21.644531 23.882812 21.667969 23.859375 21.679688 C 23.835938 21.695312 23.808594 21.695312 23.785156 21.679688 L 23.351562 21.441406 C 23.28125 21.402344 23.210938 21.402344 23.140625 21.441406 L 21.402344 22.394531 C 21.339844 22.429688 21.296875 22.5 21.296875 22.570312 L 21.296875 24.476562 C 21.296875 24.554688 21.332031 24.613281 21.402344 24.648438 L 23.140625 25.601562 C 23.210938 25.640625 23.28125 25.640625 23.351562 25.601562 L 25.089844 24.648438 C 25.160156 24.613281 25.195312 24.554688 25.195312 24.476562 L 25.195312 19.722656 C 25.195312 19.652344 25.152344 19.585938 25.085938 19.550781 L 24.050781 19 C 24.035156 18.992188 24.015625 18.988281 24 18.988281 Z M 12.816406 21.371094 C 12.78125 21.371094 12.75 21.375 12.722656 21.394531 L 10.980469 22.347656 C 10.914062 22.382812 10.878906 22.441406 10.878906 22.519531 L 10.882812 25.078125 C 10.882812 25.113281 10.902344 25.144531 10.933594 25.164062 C 10.964844 25.179688 11.007812 25.179688 11.039062 25.164062 L 12.070312 24.601562 C 12.132812 24.5625 12.175781 24.5 12.175781 24.429688 L 12.175781 23.234375 C 12.175781 23.160156 12.21875 23.097656 12.28125 23.0625 L 12.722656 22.820312 C 12.753906 22.800781 12.789062 22.792969 12.824219 22.792969 C 12.863281 22.792969 12.898438 22.800781 12.929688 22.820312 L 13.367188 23.0625 C 13.433594 23.097656 13.472656 23.160156 13.472656 23.234375 L 13.472656 24.425781 C 13.472656 24.5 13.515625 24.5625 13.582031 24.601562 L 14.613281 25.164062 C 14.644531 25.179688 14.683594 25.179688 14.71875 25.164062 C 14.75 25.144531 14.769531 25.113281 14.769531 25.078125 L 14.773438 22.519531 C 14.773438 22.441406 14.738281 22.382812 14.667969 22.347656 L 12.929688 21.394531 C 12.902344 21.375 12.871094 21.371094 12.835938 21.371094 Z M 28.4375 21.394531 C 28.398438 21.394531 28.363281 21.402344 28.332031 21.417969 L 26.59375 22.371094 C 26.527344 22.40625 26.488281 22.472656 26.488281 22.542969 L 26.488281 24.449219 C 26.488281 24.523438 26.53125 24.585938 26.597656 24.625 L 28.320312 25.558594 C 28.386719 25.589844 28.464844 25.59375 28.527344 25.558594 L 29.574219 25.007812 C 29.605469 24.988281 29.628906 24.957031 29.628906 24.921875 C 29.628906 24.886719 29.609375 24.851562 29.574219 24.835938 L 27.828125 23.882812 C 27.792969 23.863281 27.769531 23.828125 27.769531 23.792969 L 27.769531 23.195312 C 27.769531 23.160156 27.792969 23.128906 27.828125 23.109375 L 28.371094 22.8125 C 28.402344 22.792969 28.441406 22.792969 28.476562 22.8125 L 29.019531 23.109375 C 29.054688 23.128906 29.070312 23.160156 29.070312 23.195312 L 29.070312 23.667969 C 29.070312 23.703125 29.089844 23.734375 29.125 23.753906 C 29.15625 23.769531 29.195312 23.769531 29.230469 23.753906 L 30.269531 23.175781 C 30.335938 23.140625 30.375 23.074219 30.375 23.003906 L 30.375 22.542969 C 30.375 22.46875 30.339844 22.410156 30.269531 22.371094 L 28.542969 21.417969 C 28.511719 21.402344 28.476562 21.390625 28.4375 21.394531 Z M 23.238281 22.816406 C 23.25 22.816406 23.257812 22.816406 23.265625 22.824219 L 23.863281 23.148438 C 23.878906 23.160156 23.890625 23.175781 23.890625 23.191406 L 23.890625 23.847656 C 23.890625 23.867188 23.878906 23.882812 23.863281 23.890625 L 23.265625 24.21875 C 23.25 24.226562 23.230469 24.226562 23.214844 24.21875 L 22.617188 23.890625 C 22.601562 23.882812 22.589844 23.867188 22.589844 23.847656 L 22.589844 23.195312 C 22.589844 23.175781 22.601562 23.160156 22.617188 23.152344 L 23.214844 22.824219 C 23.222656 22.820312 23.230469 22.816406 23.238281 22.816406 Z M 23.238281 22.816406 " fill-opacity="1" fill-rule="nonzero"/></g><g clip-path="url(#f6812471d3)"><path fill="#7bb9bb" d="M 18.039062 21.382812 C 18 21.382812 17.964844 21.390625 17.933594 21.410156 L 16.195312 22.359375 C 16.128906 22.394531 16.089844 22.464844 16.089844 22.535156 L 16.089844 24.441406 C 16.089844 24.519531 16.125 24.574219 16.195312 24.613281 L 17.933594 25.566406 C 18.003906 25.605469 18.070312 25.605469 18.140625 25.566406 L 19.878906 24.613281 C 19.949219 24.574219 19.984375 24.519531 19.984375 24.441406 L 19.984375 22.535156 C 19.984375 22.464844 19.945312 22.394531 19.878906 22.359375 L 18.140625 21.410156 C 18.109375 21.390625 18.074219 21.382812 18.035156 21.382812 Z M 28.433594 23.085938 C 28.425781 23.085938 28.417969 23.085938 28.414062 23.085938 L 28.078125 23.273438 C 28.066406 23.28125 28.058594 23.289062 28.058594 23.304688 L 28.058594 23.667969 C 28.058594 23.683594 28.066406 23.695312 28.078125 23.703125 L 28.414062 23.886719 C 28.425781 23.890625 28.4375 23.890625 28.449219 23.886719 L 28.785156 23.703125 C 28.796875 23.695312 28.804688 23.683594 28.804688 23.667969 L 28.804688 23.304688 C 28.804688 23.292969 28.796875 23.28125 28.785156 23.273438 L 28.449219 23.085938 C 28.445312 23.082031 28.441406 23.085938 28.433594 23.085938 Z M 28.433594 23.085938 " fill-opacity="1" fill-rule="nonzero"/></g></svg>