<svg xmlns="http://www.w3.org/2000/svg" xmlns:xlink="http://www.w3.org/1999/xlink" width="60" zoomAndPan="magnify" viewBox="0 0 45 44.999999" height="60" preserveAspectRatio="xMidYMid meet" version="1.0"><defs><clipPath id="760b657111"><path d="M 9.738281 11 L 35.238281 11 L 35.238281 34.679688 L 9.738281 34.679688 Z M 9.738281 11 " clip-rule="nonzero"/></clipPath></defs><g clip-path="url(#760b657111)"><path fill="#0f595b" d="M 30.691406 18.628906 C 30.429688 18.535156 30.15625 18.449219 29.871094 18.363281 C 29.917969 18.171875 29.960938 17.984375 30 17.796875 C 30.621094 14.734375 30.214844 12.269531 28.828125 11.457031 C 27.5 10.679688 25.328125 11.492188 23.132812 13.429688 C 22.921875 13.617188 22.710938 13.816406 22.5 14.023438 C 22.359375 13.886719 22.21875 13.753906 22.078125 13.625 C 19.777344 11.550781 17.472656 10.675781 16.089844 11.492188 C 14.761719 12.273438 14.367188 14.589844 14.925781 17.492188 C 14.980469 17.773438 15.042969 18.058594 15.117188 18.347656 C 14.789062 18.441406 14.472656 18.542969 14.171875 18.648438 C 11.476562 19.605469 9.753906 21.101562 9.753906 22.65625 C 9.753906 24.257812 11.605469 25.867188 14.410156 26.84375 C 14.632812 26.921875 14.863281 26.992188 15.101562 27.0625 C 15.023438 27.375 14.957031 27.683594 14.898438 27.988281 C 14.367188 30.835938 14.785156 33.101562 16.105469 33.875 C 17.472656 34.679688 19.769531 33.855469 22.003906 31.871094 C 22.179688 31.710938 22.355469 31.546875 22.535156 31.371094 C 22.765625 31.597656 22.996094 31.808594 23.222656 32.011719 C 25.386719 33.902344 27.523438 34.667969 28.847656 33.890625 C 30.210938 33.085938 30.65625 30.652344 30.082031 27.695312 C 30.035156 27.46875 29.984375 27.238281 29.929688 27.003906 C 30.089844 26.957031 30.246094 26.90625 30.402344 26.851562 C 33.320312 25.871094 35.21875 24.28125 35.21875 22.65625 C 35.21875 21.097656 33.441406 19.589844 30.691406 18.628906 Z M 30.058594 25.804688 C 29.921875 25.851562 29.777344 25.894531 29.632812 25.9375 C 29.308594 24.902344 28.875 23.800781 28.339844 22.660156 C 28.851562 21.546875 29.269531 20.460938 29.582031 19.429688 C 29.84375 19.507812 30.09375 19.585938 30.339844 19.671875 C 32.695312 20.496094 34.132812 21.714844 34.132812 22.65625 C 34.132812 23.65625 32.582031 24.953125 30.058594 25.804688 Z M 29.011719 27.910156 C 29.269531 29.21875 29.304688 30.402344 29.136719 31.324219 C 28.984375 32.15625 28.679688 32.710938 28.300781 32.933594 C 27.5 33.402344 25.785156 32.789062 23.933594 31.171875 C 23.71875 30.984375 23.507812 30.789062 23.292969 30.578125 C 24.007812 29.78125 24.726562 28.855469 25.425781 27.824219 C 26.65625 27.714844 27.820312 27.53125 28.875 27.285156 C 28.925781 27.496094 28.972656 27.707031 29.011719 27.910156 Z M 18.4375 32.851562 C 17.652344 33.132812 17.027344 33.140625 16.652344 32.917969 C 15.847656 32.449219 15.515625 30.628906 15.96875 28.191406 C 16.023438 27.914062 16.082031 27.625 16.15625 27.332031 C 17.199219 27.566406 18.351562 27.738281 19.585938 27.835938 C 20.292969 28.847656 21.03125 29.773438 21.773438 30.582031 C 21.609375 30.742188 21.449219 30.894531 21.289062 31.035156 C 20.300781 31.914062 19.308594 32.539062 18.4375 32.851562 Z M 14.765625 25.796875 C 13.523438 25.367188 12.496094 24.804688 11.792969 24.191406 C 11.164062 23.644531 10.84375 23.097656 10.84375 22.65625 C 10.84375 21.714844 12.226562 20.511719 14.53125 19.695312 C 14.8125 19.59375 15.105469 19.5 15.40625 19.414062 C 15.726562 20.46875 16.144531 21.570312 16.648438 22.683594 C 16.136719 23.8125 15.714844 24.929688 15.390625 25.996094 C 15.175781 25.933594 14.964844 25.867188 14.765625 25.796875 Z M 15.996094 17.277344 C 15.515625 14.792969 15.835938 12.917969 16.632812 12.449219 C 17.484375 11.945312 19.371094 12.660156 21.355469 14.453125 C 21.484375 14.566406 21.609375 14.6875 21.738281 14.8125 C 20.996094 15.617188 20.265625 16.539062 19.570312 17.539062 C 18.371094 17.652344 17.222656 17.832031 16.171875 18.078125 C 16.105469 17.804688 16.046875 17.539062 15.996094 17.277344 Z M 26.980469 20.035156 C 26.726562 19.59375 26.46875 19.160156 26.207031 18.742188 C 27.019531 18.847656 27.796875 18.984375 28.527344 19.152344 C 28.308594 19.867188 28.035156 20.617188 27.710938 21.382812 C 27.480469 20.9375 27.238281 20.488281 26.980469 20.035156 Z M 22.5 15.601562 C 23.003906 16.152344 23.503906 16.769531 24 17.441406 C 23.5 17.417969 22.996094 17.402344 22.488281 17.402344 C 21.984375 17.402344 21.484375 17.417969 20.988281 17.441406 C 21.484375 16.777344 21.992188 16.160156 22.5 15.601562 Z M 17.992188 20.042969 C 17.738281 20.488281 17.5 20.933594 17.273438 21.382812 C 16.957031 20.617188 16.683594 19.867188 16.464844 19.140625 C 17.191406 18.976562 17.964844 18.84375 18.773438 18.738281 C 18.503906 19.164062 18.246094 19.597656 17.992188 20.042969 Z M 18.796875 26.648438 C 17.960938 26.554688 17.175781 26.425781 16.449219 26.265625 C 16.671875 25.527344 16.949219 24.761719 17.273438 23.980469 C 17.503906 24.429688 17.742188 24.875 17.996094 25.320312 C 18.253906 25.773438 18.519531 26.21875 18.796875 26.648438 Z M 22.53125 29.785156 C 22.015625 29.222656 21.5 28.597656 20.996094 27.921875 C 21.484375 27.941406 21.984375 27.953125 22.488281 27.953125 C 23.007812 27.953125 23.519531 27.941406 24.023438 27.917969 C 23.53125 28.601562 23.027344 29.230469 22.53125 29.785156 Z M 27.722656 23.941406 C 28.0625 24.730469 28.351562 25.492188 28.578125 26.21875 C 27.839844 26.390625 27.042969 26.527344 26.203125 26.628906 C 26.464844 26.207031 26.726562 25.765625 26.984375 25.3125 C 27.242188 24.855469 27.488281 24.398438 27.722656 23.941406 Z M 26.042969 24.761719 C 25.644531 25.464844 25.234375 26.132812 24.820312 26.765625 C 24.066406 26.820312 23.285156 26.847656 22.488281 26.847656 C 21.695312 26.847656 20.925781 26.824219 20.183594 26.773438 C 19.75 26.132812 19.332031 25.460938 18.9375 24.765625 C 18.542969 24.074219 18.179688 23.375 17.851562 22.683594 C 18.179688 21.988281 18.542969 21.285156 18.933594 20.59375 L 18.933594 20.597656 C 19.328125 19.902344 19.742188 19.234375 20.167969 18.597656 C 20.925781 18.539062 21.703125 18.507812 22.488281 18.507812 C 23.277344 18.507812 24.054688 18.539062 24.808594 18.597656 C 25.230469 19.230469 25.644531 19.898438 26.039062 20.589844 C 26.4375 21.289062 26.804688 21.984375 27.136719 22.667969 C 26.804688 23.359375 26.4375 24.0625 26.042969 24.761719 Z M 28.285156 12.414062 C 29.136719 12.914062 29.46875 14.929688 28.933594 17.574219 C 28.898438 17.742188 28.859375 17.914062 28.820312 18.085938 C 27.761719 17.839844 26.617188 17.65625 25.414062 17.542969 C 24.714844 16.527344 23.988281 15.609375 23.261719 14.8125 C 23.457031 14.621094 23.652344 14.4375 23.847656 14.265625 C 25.726562 12.601562 27.484375 11.945312 28.285156 12.414062 Z M 22.488281 20.34375 C 23.742188 20.34375 24.761719 21.378906 24.761719 22.65625 C 24.761719 23.929688 23.742188 24.964844 22.488281 24.964844 C 21.234375 24.964844 20.214844 23.929688 20.214844 22.65625 C 20.214844 21.378906 21.234375 20.34375 22.488281 20.34375 Z M 22.488281 20.34375 " fill-opacity="1" fill-rule="nonzero"/></g></svg>