<svg xmlns="http://www.w3.org/2000/svg" xmlns:xlink="http://www.w3.org/1999/xlink" width="60" zoomAndPan="magnify" viewBox="0 0 45 44.999999" height="60" preserveAspectRatio="xMidYMid meet" version="1.0"><defs><clipPath id="c3cb4ee8b2"><path d="M 11.699219 10.679688 L 33.449219 10.679688 L 33.449219 34.679688 L 11.699219 34.679688 Z M 11.699219 10.679688 " clip-rule="nonzero"/></clipPath></defs><g clip-path="url(#c3cb4ee8b2)"><path fill="#0f595b" d="M 30.835938 20.824219 L 30.835938 17.910156 C 30.835938 17.800781 30.792969 17.710938 30.730469 17.636719 C 30.726562 17.632812 30.726562 17.628906 30.726562 17.625 L 24.429688 10.914062 C 24.425781 10.914062 24.425781 10.914062 24.425781 10.914062 C 24.351562 10.835938 24.246094 10.785156 24.128906 10.785156 L 14.761719 10.785156 C 14.535156 10.785156 14.351562 10.972656 14.351562 11.199219 L 14.351562 20.824219 C 12.867188 21.007812 11.710938 22.28125 11.710938 23.832031 L 11.710938 28.917969 C 11.710938 30.46875 12.867188 31.742188 14.351562 31.925781 L 14.351562 34.117188 C 14.351562 34.347656 14.535156 34.53125 14.761719 34.53125 L 30.425781 34.53125 C 30.652344 34.53125 30.835938 34.347656 30.835938 34.117188 L 30.835938 31.925781 C 32.320312 31.742188 33.476562 30.46875 33.476562 28.917969 L 33.476562 23.832031 C 33.476562 22.28125 32.320312 21.007812 30.835938 20.824219 Z M 30.015625 33.707031 L 15.171875 33.707031 L 15.171875 31.949219 L 30.015625 31.949219 Z M 17.863281 27.839844 C 18.042969 28.058594 18.273438 28.164062 18.5625 28.164062 C 18.777344 28.164062 18.953125 28.097656 19.105469 27.960938 C 19.253906 27.824219 19.371094 27.605469 19.441406 27.304688 C 19.445312 27.277344 19.464844 27.25 19.488281 27.234375 C 19.515625 27.222656 19.542969 27.21875 19.570312 27.226562 L 20.429688 27.503906 C 20.484375 27.519531 20.511719 27.578125 20.496094 27.628906 C 20.363281 28.132812 20.128906 28.515625 19.804688 28.761719 C 19.480469 29.011719 19.0625 29.132812 18.570312 29.132812 C 17.960938 29.132812 17.453125 28.921875 17.054688 28.496094 C 16.667969 28.082031 16.464844 27.5 16.464844 26.78125 C 16.464844 26.015625 16.667969 25.414062 17.058594 24.988281 C 17.457031 24.558594 17.984375 24.34375 18.625 24.34375 C 19.191406 24.34375 19.652344 24.511719 20.007812 24.851562 C 20.222656 25.054688 20.382812 25.34375 20.484375 25.714844 C 20.492188 25.742188 20.488281 25.773438 20.476562 25.796875 C 20.460938 25.820312 20.441406 25.839844 20.410156 25.84375 L 19.535156 26.058594 C 19.503906 26.0625 19.476562 26.058594 19.457031 26.042969 C 19.433594 26.027344 19.414062 26.003906 19.40625 25.980469 C 19.363281 25.773438 19.269531 25.609375 19.121094 25.492188 C 18.972656 25.371094 18.796875 25.3125 18.578125 25.3125 C 18.285156 25.3125 18.050781 25.417969 17.867188 25.632812 C 17.679688 25.851562 17.585938 26.210938 17.585938 26.714844 C 17.585938 27.246094 17.679688 27.625 17.863281 27.839844 Z M 23.453125 27.464844 C 23.40625 27.40625 23.3125 27.355469 23.179688 27.304688 C 23.082031 27.269531 22.84375 27.207031 22.480469 27.113281 C 21.980469 26.992188 21.640625 26.835938 21.429688 26.652344 C 21.140625 26.386719 20.992188 26.066406 20.992188 25.683594 C 20.992188 25.4375 21.0625 25.207031 21.203125 24.992188 C 21.335938 24.78125 21.539062 24.617188 21.796875 24.503906 C 22.046875 24.398438 22.347656 24.34375 22.699219 24.34375 C 23.273438 24.34375 23.714844 24.476562 24.015625 24.734375 C 24.3125 24.996094 24.472656 25.351562 24.492188 25.785156 C 24.492188 25.84375 24.445312 25.890625 24.390625 25.890625 L 23.503906 25.933594 C 23.449219 25.933594 23.40625 25.894531 23.398438 25.847656 C 23.363281 25.644531 23.292969 25.5 23.191406 25.417969 C 23.085938 25.335938 22.917969 25.289062 22.691406 25.289062 C 22.457031 25.289062 22.273438 25.339844 22.148438 25.429688 C 22.078125 25.480469 22.046875 25.539062 22.046875 25.625 C 22.046875 25.699219 22.078125 25.761719 22.144531 25.8125 C 22.207031 25.871094 22.402344 25.964844 22.917969 26.089844 C 23.355469 26.195312 23.683594 26.304688 23.902344 26.417969 C 24.121094 26.535156 24.296875 26.699219 24.425781 26.902344 C 24.550781 27.109375 24.613281 27.367188 24.613281 27.664062 C 24.613281 27.9375 24.539062 28.195312 24.386719 28.4375 C 24.238281 28.671875 24.023438 28.851562 23.75 28.96875 C 23.480469 29.082031 23.148438 29.136719 22.75 29.136719 C 22.171875 29.136719 21.71875 28.996094 21.402344 28.726562 C 21.085938 28.449219 20.894531 28.046875 20.835938 27.527344 C 20.832031 27.5 20.839844 27.46875 20.855469 27.449219 C 20.875 27.429688 20.898438 27.410156 20.925781 27.410156 L 21.792969 27.324219 C 21.847656 27.324219 21.894531 27.359375 21.902344 27.410156 C 21.945312 27.675781 22.046875 27.875 22.183594 27.992188 C 22.324219 28.113281 22.515625 28.175781 22.761719 28.175781 C 23.019531 28.175781 23.214844 28.121094 23.339844 28.015625 C 23.460938 27.914062 23.523438 27.800781 23.523438 27.667969 C 23.523438 27.589844 23.5 27.523438 23.453125 27.464844 Z M 27.554688 27.464844 C 27.503906 27.40625 27.410156 27.355469 27.277344 27.304688 C 27.175781 27.269531 26.941406 27.207031 26.574219 27.113281 C 26.078125 26.992188 25.734375 26.835938 25.53125 26.652344 C 25.238281 26.386719 25.09375 26.066406 25.09375 25.683594 C 25.09375 25.4375 25.164062 25.207031 25.296875 24.992188 C 25.4375 24.78125 25.636719 24.617188 25.890625 24.503906 C 26.144531 24.398438 26.449219 24.34375 26.800781 24.34375 C 27.375 24.34375 27.816406 24.476562 28.113281 24.734375 C 28.410156 24.996094 28.570312 25.351562 28.585938 25.785156 C 28.589844 25.84375 28.546875 25.890625 28.488281 25.890625 L 27.597656 25.933594 C 27.554688 25.933594 27.503906 25.894531 27.496094 25.847656 C 27.464844 25.644531 27.390625 25.5 27.289062 25.417969 C 27.179688 25.335938 27.011719 25.289062 26.789062 25.289062 C 26.554688 25.289062 26.371094 25.339844 26.242188 25.429688 C 26.179688 25.480469 26.144531 25.539062 26.144531 25.625 C 26.144531 25.699219 26.175781 25.761719 26.238281 25.8125 C 26.308594 25.871094 26.496094 25.964844 27.011719 26.089844 C 27.453125 26.195312 27.785156 26.304688 27.996094 26.417969 C 28.21875 26.535156 28.398438 26.699219 28.519531 26.902344 C 28.648438 27.109375 28.714844 27.367188 28.714844 27.664062 C 28.714844 27.9375 28.636719 28.195312 28.488281 28.4375 C 28.335938 28.671875 28.121094 28.851562 27.84375 28.96875 C 27.578125 29.082031 27.242188 29.136719 26.851562 29.136719 C 26.273438 29.136719 25.816406 28.996094 25.503906 28.726562 C 25.1875 28.449219 24.996094 28.046875 24.933594 27.527344 C 24.929688 27.5 24.9375 27.46875 24.953125 27.449219 C 24.972656 27.429688 25 27.410156 25.023438 27.410156 L 25.886719 27.324219 C 25.945312 27.324219 25.988281 27.359375 25.996094 27.410156 C 26.046875 27.675781 26.140625 27.875 26.28125 27.992188 C 26.417969 28.113281 26.617188 28.175781 26.859375 28.175781 C 27.121094 28.175781 27.3125 28.121094 27.441406 28.015625 C 27.5625 27.914062 27.621094 27.800781 27.621094 27.667969 C 27.621094 27.589844 27.597656 27.523438 27.554688 27.464844 Z M 30.015625 20.800781 L 15.171875 20.800781 L 15.171875 11.609375 L 23.71875 11.609375 L 23.71875 17.910156 C 23.71875 18.136719 23.90625 18.320312 24.128906 18.320312 L 30.015625 18.320312 Z M 30.015625 20.800781 " fill-opacity="1" fill-rule="nonzero"/></g></svg>