<svg xmlns="http://www.w3.org/2000/svg" xmlns:xlink="http://www.w3.org/1999/xlink" width="60" zoomAndPan="magnify" viewBox="0 0 45 44.999999" height="60" preserveAspectRatio="xMidYMid meet" version="1.0"><defs><clipPath id="5e63548775"><path d="M 11.230469 11.527344 L 33.730469 11.527344 L 33.730469 33.277344 L 11.230469 33.277344 Z M 11.230469 11.527344 " clip-rule="nonzero"/></clipPath></defs><g clip-path="url(#5e63548775)"><path fill="#0f595b" d="M 31.851562 20.429688 C 32.347656 18.953125 32.175781 17.332031 31.382812 15.984375 C 30.1875 13.921875 27.789062 12.863281 25.445312 13.359375 C 24.402344 12.191406 22.902344 11.527344 21.332031 11.539062 C 18.9375 11.53125 16.8125 13.066406 16.074219 15.332031 C 14.535156 15.644531 13.207031 16.601562 12.429688 17.957031 C 11.230469 20.015625 11.503906 22.609375 13.109375 24.375 C 12.617188 25.855469 12.785156 27.472656 13.578125 28.816406 C 14.773438 30.882812 17.171875 31.945312 19.519531 31.449219 C 20.5625 32.613281 22.058594 33.277344 23.625 33.269531 C 26.023438 33.273438 28.148438 31.742188 28.886719 29.476562 C 30.421875 29.164062 31.75 28.207031 32.527344 26.851562 C 33.730469 24.792969 33.457031 22.195312 31.851562 20.429688 Z M 23.625 31.851562 C 22.667969 31.851562 21.738281 31.519531 21.003906 30.90625 C 21.035156 30.890625 21.097656 30.859375 21.132812 30.832031 L 25.492188 28.335938 C 25.714844 28.210938 25.851562 27.976562 25.847656 27.722656 L 25.847656 21.621094 L 27.691406 22.675781 C 27.710938 22.683594 27.722656 22.703125 27.726562 22.726562 L 27.726562 27.777344 C 27.726562 30.023438 25.890625 31.847656 23.625 31.851562 Z M 14.816406 28.117188 C 14.335938 27.292969 14.164062 26.324219 14.324219 25.386719 C 14.359375 25.40625 14.414062 25.441406 14.457031 25.464844 L 18.8125 27.964844 C 19.035156 28.089844 19.308594 28.089844 19.53125 27.964844 L 24.847656 24.910156 L 24.847656 27.019531 C 24.847656 27.042969 24.839844 27.0625 24.820312 27.078125 L 20.417969 29.601562 C 18.457031 30.722656 15.949219 30.054688 14.816406 28.109375 Z M 13.675781 18.667969 C 14.152344 17.84375 14.910156 17.210938 15.808594 16.882812 L 15.808594 22.027344 C 15.808594 22.28125 15.945312 22.515625 16.167969 22.640625 L 21.484375 25.691406 L 19.636719 26.75 C 19.621094 26.761719 19.597656 26.765625 19.574219 26.753906 L 15.171875 24.230469 C 13.210938 23.101562 12.539062 20.613281 13.671875 18.667969 Z M 28.804688 22.164062 L 23.484375 19.113281 L 25.324219 18.058594 C 25.339844 18.046875 25.363281 18.042969 25.386719 18.050781 L 29.789062 20.578125 C 31.167969 21.367188 31.960938 22.878906 31.824219 24.449219 C 31.6875 26.023438 30.648438 27.378906 29.15625 27.925781 L 29.15625 22.78125 C 29.160156 22.527344 29.023438 22.289062 28.800781 22.164062 Z M 30.636719 19.425781 C 30.605469 19.402344 30.546875 19.371094 30.507812 19.347656 L 26.148438 16.847656 C 25.929688 16.71875 25.652344 16.71875 25.433594 16.847656 L 20.113281 19.898438 L 20.113281 17.789062 C 20.113281 17.765625 20.125 17.742188 20.140625 17.730469 L 24.546875 15.207031 C 25.921875 14.417969 27.636719 14.492188 28.941406 15.394531 C 30.242188 16.296875 30.902344 17.867188 30.632812 19.425781 Z M 19.109375 23.1875 L 17.269531 22.132812 C 17.25 22.121094 17.234375 22.101562 17.234375 22.082031 L 17.234375 17.03125 C 17.230469 15.453125 18.152344 14.011719 19.59375 13.34375 C 21.03125 12.671875 22.734375 12.890625 23.957031 13.898438 C 23.925781 13.917969 23.867188 13.949219 23.824219 13.972656 L 19.46875 16.472656 C 19.246094 16.597656 19.109375 16.832031 19.109375 17.085938 Z M 20.109375 21.046875 L 22.480469 19.6875 L 24.847656 21.046875 L 24.847656 23.761719 L 22.480469 25.121094 L 20.109375 23.761719 Z M 20.109375 21.046875 " fill-opacity="1" fill-rule="nonzero"/></g></svg>