<svg xmlns="http://www.w3.org/2000/svg" xmlns:xlink="http://www.w3.org/1999/xlink" width="60" zoomAndPan="magnify" viewBox="0 0 45 44.999999" height="60" preserveAspectRatio="xMidYMid meet" version="1.0"><defs><clipPath id="e97f54f548"><path d="M 9.378906 15.398438 L 35.628906 15.398438 L 35.628906 29.648438 L 9.378906 29.648438 Z M 9.378906 15.398438 " clip-rule="nonzero"/></clipPath></defs><g clip-path="url(#e97f54f548)"><path fill="#0f595b" d="M 22.503906 15.398438 C 18.953125 15.398438 15.738281 16.140625 13.359375 17.386719 C 10.984375 18.628906 9.386719 20.421875 9.386719 22.523438 C 9.386719 24.621094 10.984375 26.414062 13.359375 27.660156 C 15.738281 28.902344 18.953125 29.648438 22.503906 29.648438 C 26.050781 29.648438 29.269531 28.902344 31.644531 27.660156 C 34.019531 26.414062 35.617188 24.621094 35.617188 22.523438 C 35.617188 20.421875 34.019531 18.628906 31.644531 17.386719 C 29.269531 16.140625 26.050781 15.398438 22.503906 15.398438 Z M 22.503906 16.492188 C 25.898438 16.492188 28.964844 17.21875 31.136719 18.359375 C 33.3125 19.496094 34.527344 20.988281 34.527344 22.523438 C 34.527344 24.054688 33.3125 25.550781 31.136719 26.6875 C 28.964844 27.824219 25.898438 28.550781 22.503906 28.550781 C 19.109375 28.550781 16.039062 27.824219 13.867188 26.6875 C 11.695312 25.550781 10.480469 24.054688 10.480469 22.523438 C 10.480469 20.988281 11.695312 19.496094 13.867188 18.359375 C 16.039062 17.21875 19.109375 16.492188 22.503906 16.492188 Z M 21.140625 17.589844 L 19.769531 24.167969 L 21.203125 24.167969 L 21.894531 20.878906 L 23.042969 20.878906 C 23.40625 20.878906 23.652344 20.9375 23.765625 21.058594 C 23.875 21.183594 23.898438 21.414062 23.835938 21.746094 L 23.3125 24.167969 L 24.765625 24.167969 L 25.335938 21.546875 C 25.457031 20.921875 25.367188 20.460938 25.0625 20.179688 C 24.753906 19.894531 24.207031 19.78125 23.398438 19.78125 L 22.117188 19.78125 L 22.574219 17.589844 Z M 14.851562 19.78125 L 13.742188 25.8125 L 15.1875 25.8125 L 15.476562 24.167969 L 16.378906 24.167969 C 18.261719 24.167969 19.285156 23.730469 19.667969 22.109375 C 19.996094 20.714844 19.15625 19.78125 17.765625 19.78125 Z M 26.328125 19.78125 L 25.21875 25.8125 L 26.664062 25.8125 L 26.953125 24.167969 L 27.855469 24.167969 C 29.738281 24.167969 30.761719 23.730469 31.144531 22.109375 C 31.472656 20.714844 30.632812 19.78125 29.242188 19.78125 Z M 16.09375 20.878906 L 17.21875 20.878906 C 18.152344 20.878906 18.351562 21.300781 18.300781 21.769531 C 18.175781 22.976562 17.421875 23.070312 16.617188 23.070312 L 15.679688 23.070312 Z M 27.570312 20.878906 L 28.695312 20.878906 C 29.628906 20.878906 29.828125 21.300781 29.777344 21.769531 C 29.652344 22.976562 28.902344 23.070312 28.09375 23.070312 L 27.15625 23.070312 Z M 27.570312 20.878906 " fill-opacity="1" fill-rule="nonzero"/></g></svg>