<svg xmlns="http://www.w3.org/2000/svg" xmlns:xlink="http://www.w3.org/1999/xlink" width="60" zoomAndPan="magnify" viewBox="0 0 45 44.999999" height="60" preserveAspectRatio="xMidYMid meet" version="1.0"><defs><clipPath id="b73bf1813b"><path d="M 32 21 L 37.804688 21 L 37.804688 27 L 32 27 Z M 32 21 " clip-rule="nonzero"/></clipPath><clipPath id="9e70dde312"><path d="M 7.054688 18.0625 L 32 18.0625 L 32 27 L 7.054688 27 Z M 7.054688 18.0625 " clip-rule="nonzero"/></clipPath></defs><rect x="-4.5" width="54" fill="#ffffff" y="-4.5" height="53.999999" fill-opacity="1"/><rect x="-4.5" width="54" fill="#ffffff" y="-4.5" height="53.999999" fill-opacity="1"/><rect x="-4.5" width="54" fill="#ffffff" y="-4.5" height="53.999999" fill-opacity="1"/><g clip-path="url(#b73bf1813b)"><path fill="#0f595b" d="M 35.34375 21.265625 C 35.269531 21.265625 35.199219 21.28125 35.132812 21.316406 L 33.09375 22.515625 C 32.960938 22.59375 32.882812 22.742188 32.882812 22.894531 L 32.882812 25.292969 C 32.882812 25.445312 32.960938 25.59375 33.09375 25.671875 L 33.628906 25.984375 C 33.886719 26.113281 33.980469 26.109375 34.097656 26.109375 C 34.480469 26.109375 34.699219 25.875 34.699219 25.460938 L 34.699219 23.101562 C 34.699219 23.066406 34.671875 23.042969 34.640625 23.042969 L 34.382812 23.042969 C 34.351562 23.042969 34.324219 23.066406 34.324219 23.101562 L 34.324219 25.464844 C 34.324219 25.644531 34.136719 25.828125 33.835938 25.675781 L 33.28125 25.34375 C 33.261719 25.332031 33.246094 25.3125 33.246094 25.292969 L 33.246094 22.898438 C 33.246094 22.875 33.261719 22.851562 33.28125 22.839844 L 35.316406 21.644531 C 35.335938 21.632812 35.359375 21.632812 35.375 21.644531 L 37.410156 22.839844 C 37.429688 22.851562 37.445312 22.875 37.445312 22.898438 L 37.445312 25.292969 C 37.445312 25.3125 37.433594 25.335938 37.414062 25.347656 L 35.375 26.542969 C 35.359375 26.554688 35.335938 26.554688 35.316406 26.542969 L 34.792969 26.226562 C 34.777344 26.21875 34.753906 26.21875 34.742188 26.226562 C 34.597656 26.308594 34.570312 26.320312 34.433594 26.367188 C 34.398438 26.378906 34.347656 26.398438 34.449219 26.457031 L 35.132812 26.867188 C 35.199219 26.90625 35.273438 26.925781 35.347656 26.925781 C 35.421875 26.925781 35.492188 26.90625 35.558594 26.867188 L 37.597656 25.671875 C 37.730469 25.59375 37.808594 25.449219 37.808594 25.292969 L 37.808594 22.898438 C 37.808594 22.742188 37.730469 22.597656 37.597656 22.519531 L 35.558594 21.320312 C 35.496094 21.28125 35.421875 21.265625 35.347656 21.265625 Z M 35.890625 22.976562 C 35.308594 22.976562 34.964844 23.226562 34.964844 23.644531 C 34.964844 24.101562 35.308594 24.226562 35.863281 24.28125 C 36.53125 24.347656 36.582031 24.449219 36.582031 24.582031 C 36.582031 24.8125 36.402344 24.910156 35.972656 24.910156 C 35.433594 24.910156 35.316406 24.773438 35.277344 24.5 C 35.273438 24.472656 35.25 24.449219 35.21875 24.449219 L 34.957031 24.449219 C 34.914062 24.449219 34.894531 24.46875 34.894531 24.511719 C 34.894531 24.859375 35.082031 25.273438 35.972656 25.273438 C 36.617188 25.273438 36.988281 25.015625 36.988281 24.5625 C 36.988281 24.117188 36.6875 23.996094 36.0625 23.910156 C 35.433594 23.824219 35.371094 23.785156 35.371094 23.632812 C 35.371094 23.507812 35.421875 23.339844 35.890625 23.339844 C 36.308594 23.339844 36.464844 23.433594 36.527344 23.71875 C 36.53125 23.746094 36.554688 23.769531 36.582031 23.769531 L 36.847656 23.769531 C 36.863281 23.769531 36.878906 23.757812 36.890625 23.746094 C 36.902344 23.734375 36.910156 23.71875 36.910156 23.703125 C 36.867188 23.207031 36.542969 22.976562 35.890625 22.976562 Z M 35.890625 22.976562 " fill-opacity="1" fill-rule="nonzero"/></g><g clip-path="url(#9e70dde312)"><path fill="#1b6b6d" d="M 23.359375 18.125 C 23.335938 18.125 23.316406 18.132812 23.292969 18.144531 C 23.25 18.167969 23.230469 18.207031 23.230469 18.257812 L 23.230469 21.632812 C 23.230469 21.664062 23.214844 21.695312 23.1875 21.710938 C 23.15625 21.730469 23.125 21.730469 23.09375 21.710938 L 22.554688 21.394531 C 22.46875 21.34375 22.382812 21.34375 22.292969 21.394531 L 20.136719 22.664062 C 20.054688 22.710938 20.003906 22.800781 20.003906 22.898438 L 20.003906 25.4375 C 20.003906 25.539062 20.046875 25.617188 20.136719 25.667969 L 22.296875 26.9375 C 22.382812 26.988281 22.46875 26.988281 22.554688 26.9375 L 24.714844 25.667969 C 24.800781 25.617188 24.84375 25.539062 24.84375 25.4375 L 24.84375 19.105469 C 24.84375 19.007812 24.792969 18.917969 24.710938 18.871094 L 23.425781 18.136719 C 23.40625 18.128906 23.382812 18.125 23.359375 18.125 Z M 9.464844 21.296875 C 9.421875 21.296875 9.386719 21.304688 9.347656 21.328125 L 7.1875 22.597656 C 7.101562 22.648438 7.058594 22.722656 7.058594 22.828125 L 7.0625 26.234375 C 7.0625 26.28125 7.085938 26.328125 7.128906 26.351562 C 7.167969 26.375 7.21875 26.375 7.257812 26.351562 L 8.539062 25.601562 C 8.621094 25.550781 8.671875 25.464844 8.671875 25.371094 L 8.671875 23.777344 C 8.671875 23.683594 8.722656 23.597656 8.804688 23.550781 L 9.347656 23.226562 C 9.386719 23.203125 9.429688 23.191406 9.476562 23.191406 C 9.523438 23.191406 9.566406 23.203125 9.609375 23.226562 L 10.152344 23.550781 C 10.234375 23.597656 10.28125 23.683594 10.28125 23.777344 L 10.28125 25.371094 C 10.28125 25.464844 10.335938 25.550781 10.417969 25.601562 L 11.699219 26.351562 C 11.738281 26.375 11.789062 26.375 11.828125 26.351562 C 11.867188 26.328125 11.894531 26.28125 11.894531 26.234375 L 11.898438 22.828125 C 11.898438 22.722656 11.855469 22.648438 11.769531 22.597656 L 9.609375 21.328125 C 9.570312 21.304688 9.53125 21.296875 9.492188 21.296875 Z M 28.875 21.328125 C 28.828125 21.328125 28.785156 21.339844 28.746094 21.363281 L 26.585938 22.632812 C 26.503906 22.679688 26.453125 22.765625 26.453125 22.863281 L 26.453125 25.402344 C 26.453125 25.496094 26.507812 25.585938 26.589844 25.632812 L 28.730469 26.875 C 28.808594 26.921875 28.90625 26.925781 28.988281 26.878906 L 30.285156 26.144531 C 30.328125 26.121094 30.355469 26.078125 30.355469 26.027344 C 30.355469 25.980469 30.328125 25.9375 30.289062 25.914062 L 28.117188 24.644531 C 28.074219 24.621094 28.046875 24.574219 28.046875 24.523438 L 28.046875 23.730469 C 28.046875 23.683594 28.074219 23.640625 28.117188 23.617188 L 28.792969 23.21875 C 28.832031 23.195312 28.882812 23.195312 28.921875 23.21875 L 29.597656 23.617188 C 29.640625 23.640625 29.664062 23.679688 29.664062 23.730469 L 29.664062 24.355469 C 29.664062 24.40625 29.683594 24.445312 29.726562 24.472656 C 29.769531 24.496094 29.816406 24.496094 29.859375 24.472656 L 31.152344 23.703125 C 31.230469 23.65625 31.28125 23.570312 31.28125 23.476562 L 31.28125 22.863281 C 31.28125 22.761719 31.238281 22.683594 31.152344 22.632812 L 29.003906 21.363281 C 28.964844 21.339844 28.921875 21.328125 28.875 21.328125 Z M 22.414062 23.222656 C 22.429688 23.222656 22.441406 23.226562 22.449219 23.230469 L 23.191406 23.667969 C 23.210938 23.679688 23.226562 23.703125 23.226562 23.726562 L 23.226562 24.597656 C 23.226562 24.625 23.210938 24.644531 23.191406 24.65625 L 22.449219 25.09375 C 22.429688 25.105469 22.40625 25.105469 22.386719 25.09375 L 21.644531 24.65625 C 21.625 24.644531 21.609375 24.621094 21.609375 24.597656 L 21.609375 23.726562 C 21.609375 23.703125 21.625 23.679688 21.644531 23.667969 L 22.386719 23.234375 C 22.394531 23.226562 22.40625 23.222656 22.414062 23.222656 Z M 22.414062 23.222656 " fill-opacity="1" fill-rule="nonzero"/></g><path fill="#0f595b" d="M 15.953125 21.3125 C 15.90625 21.3125 15.863281 21.324219 15.824219 21.347656 L 13.664062 22.613281 C 13.582031 22.664062 13.535156 22.753906 13.535156 22.847656 L 13.535156 25.390625 C 13.535156 25.492188 13.578125 25.566406 13.664062 25.617188 L 15.824219 26.886719 C 15.910156 26.9375 15.996094 26.9375 16.082031 26.886719 L 18.242188 25.617188 C 18.328125 25.566406 18.371094 25.492188 18.371094 25.390625 L 18.371094 22.847656 C 18.371094 22.753906 18.324219 22.664062 18.242188 22.613281 L 16.082031 21.347656 C 16.042969 21.324219 16 21.3125 15.953125 21.3125 Z M 28.871094 23.582031 C 28.859375 23.582031 28.851562 23.582031 28.84375 23.585938 L 28.429688 23.832031 C 28.410156 23.839844 28.402344 23.855469 28.402344 23.875 L 28.402344 24.359375 C 28.402344 24.378906 28.414062 24.394531 28.429688 24.40625 L 28.84375 24.648438 C 28.859375 24.65625 28.875 24.65625 28.890625 24.648438 L 29.308594 24.40625 C 29.324219 24.394531 29.332031 24.378906 29.332031 24.359375 L 29.332031 23.875 C 29.332031 23.859375 29.324219 23.839844 29.308594 23.832031 L 28.890625 23.585938 C 28.882812 23.582031 28.878906 23.582031 28.871094 23.582031 Z M 28.871094 23.582031 " fill-opacity="1" fill-rule="nonzero"/></svg>