<svg xmlns="http://www.w3.org/2000/svg" xmlns:xlink="http://www.w3.org/1999/xlink" width="60" zoomAndPan="magnify" viewBox="0 0 45 44.999999" height="60" preserveAspectRatio="xMidYMid meet" version="1.0"><defs><clipPath id="c7985a8da9"><path d="M 21 11.289062 L 29 11.289062 L 29 17 L 21 17 Z M 21 11.289062 " clip-rule="nonzero"/></clipPath><clipPath id="c21a487d83"><path d="M 19 11.289062 L 21 11.289062 L 21 13 L 19 13 Z M 19 11.289062 " clip-rule="nonzero"/></clipPath><clipPath id="3347369559"><path d="M 29 11.289062 L 32 11.289062 L 32 13 L 29 13 Z M 29 11.289062 " clip-rule="nonzero"/></clipPath><clipPath id="0d45e6e194"><path d="M 20 32 L 30 32 L 30 33.789062 L 20 33.789062 Z M 20 32 " clip-rule="nonzero"/></clipPath><clipPath id="da24666143"><path d="M 10.898438 17 L 16 17 L 16 22 L 10.898438 22 Z M 10.898438 17 " clip-rule="nonzero"/></clipPath><clipPath id="43cdc87995"><path d="M 16 26 L 34.148438 26 L 34.148438 29 L 16 29 Z M 16 26 " clip-rule="nonzero"/></clipPath><clipPath id="83b052eb0e"><path d="M 31 16 L 34.148438 16 L 34.148438 26 L 31 26 Z M 31 16 " clip-rule="nonzero"/></clipPath><clipPath id="7acfebab3e"><path d="M 10.898438 12 L 22 12 L 22 20 L 10.898438 20 Z M 10.898438 12 " clip-rule="nonzero"/></clipPath></defs><g clip-path="url(#c7985a8da9)"><path fill="#0f595b" d="M 26.4375 14.566406 L 24.59375 15.488281 C 24.503906 15.535156 24.40625 15.554688 24.308594 15.554688 C 23.964844 15.554688 23.683594 15.277344 23.683594 14.929688 L 23.683594 13.078125 C 23.683594 12.734375 23.964844 12.453125 24.308594 12.453125 C 24.40625 12.453125 24.503906 12.476562 24.59375 12.519531 L 26.4375 13.441406 C 26.648438 13.550781 26.78125 13.765625 26.78125 14.003906 C 26.78125 14.242188 26.648438 14.457031 26.4375 14.566406 Z M 28.71875 11.289062 L 21.746094 11.289062 L 21.746094 16.71875 L 28.71875 16.71875 L 28.71875 11.289062 " fill-opacity="1" fill-rule="nonzero"/></g><path fill="#0f595b" d="M 28.71875 23.703125 L 21.746094 23.703125 L 21.746094 25.253906 L 28.71875 25.253906 L 28.71875 23.703125 " fill-opacity="1" fill-rule="nonzero"/><path fill="#0f595b" d="M 26.4375 20.773438 L 24.59375 21.695312 C 24.503906 21.742188 24.40625 21.761719 24.308594 21.761719 C 23.964844 21.761719 23.683594 21.484375 23.683594 21.136719 L 23.683594 19.285156 C 23.683594 18.941406 23.964844 18.660156 24.308594 18.660156 C 24.40625 18.660156 24.503906 18.683594 24.59375 18.726562 L 26.4375 19.648438 C 26.648438 19.757812 26.78125 19.972656 26.78125 20.210938 C 26.78125 20.449219 26.648438 20.664062 26.4375 20.773438 Z M 28.71875 17.496094 L 21.746094 17.496094 L 21.746094 19.058594 L 22.523438 19.625 L 22.523438 20.597656 L 21.746094 20.597656 L 21.746094 22.925781 L 28.71875 22.925781 L 28.71875 17.496094 " fill-opacity="1" fill-rule="nonzero"/><g clip-path="url(#c21a487d83)"><path fill="#0f595b" d="M 20.972656 11.289062 L 19.425781 11.289062 L 19.425781 12.066406 L 20.972656 12.066406 L 20.972656 11.289062 " fill-opacity="1" fill-rule="nonzero"/></g><path fill="#0f595b" d="M 20.972656 15.945312 L 19.425781 15.945312 L 19.425781 16.71875 L 20.972656 16.71875 L 20.972656 15.945312 " fill-opacity="1" fill-rule="nonzero"/><path fill="#0f595b" d="M 20.972656 14.390625 L 19.425781 14.390625 L 19.425781 15.167969 L 20.972656 15.167969 L 20.972656 14.390625 " fill-opacity="1" fill-rule="nonzero"/><path fill="#0f595b" d="M 20.972656 17.496094 L 19.617188 17.496094 L 20.972656 18.488281 Z M 20.972656 17.496094 " fill-opacity="1" fill-rule="nonzero"/><path fill="#0f595b" d="M 31.042969 23.703125 L 29.492188 23.703125 L 29.492188 25.253906 L 31.042969 25.253906 L 31.042969 23.703125 " fill-opacity="1" fill-rule="nonzero"/><path fill="#0f595b" d="M 31.042969 14.390625 L 29.492188 14.390625 L 29.492188 15.167969 L 31.042969 15.167969 L 31.042969 14.390625 " fill-opacity="1" fill-rule="nonzero"/><path fill="#0f595b" d="M 31.042969 15.945312 L 29.492188 15.945312 L 29.492188 16.71875 L 31.042969 16.71875 L 31.042969 15.945312 " fill-opacity="1" fill-rule="nonzero"/><path fill="#0f595b" d="M 31.042969 12.839844 L 29.492188 12.839844 L 29.492188 13.617188 L 31.042969 13.617188 L 31.042969 12.839844 " fill-opacity="1" fill-rule="nonzero"/><g clip-path="url(#3347369559)"><path fill="#0f595b" d="M 31.042969 11.289062 L 29.492188 11.289062 L 29.492188 12.066406 L 31.042969 12.066406 L 31.042969 11.289062 " fill-opacity="1" fill-rule="nonzero"/></g><path fill="#0f595b" d="M 31.042969 19.046875 L 29.492188 19.046875 L 29.492188 19.824219 L 31.042969 19.824219 L 31.042969 19.046875 " fill-opacity="1" fill-rule="nonzero"/><path fill="#0f595b" d="M 31.042969 20.597656 L 29.492188 20.597656 L 29.492188 21.375 L 31.042969 21.375 L 31.042969 20.597656 " fill-opacity="1" fill-rule="nonzero"/><path fill="#0f595b" d="M 31.042969 17.496094 L 29.492188 17.496094 L 29.492188 18.273438 L 31.042969 18.273438 L 31.042969 17.496094 " fill-opacity="1" fill-rule="nonzero"/><path fill="#0f595b" d="M 31.042969 22.152344 L 29.492188 22.152344 L 29.492188 22.925781 L 31.042969 22.925781 L 31.042969 22.152344 " fill-opacity="1" fill-rule="nonzero"/><path fill="#0f595b" d="M 20.972656 12.839844 L 19.425781 12.839844 L 19.425781 13.617188 L 20.972656 13.617188 L 20.972656 12.839844 " fill-opacity="1" fill-rule="nonzero"/><g clip-path="url(#0d45e6e194)"><path fill="#0f595b" d="M 25.234375 33.011719 C 23.941406 33.011719 22.03125 32.855469 20.972656 32.355469 L 20.972656 33.011719 C 21.105469 33.273438 22.648438 33.789062 25.234375 33.789062 C 27.820312 33.789062 29.359375 33.273438 29.5 32.984375 L 29.496094 32.355469 C 28.441406 32.855469 26.527344 33.011719 25.234375 33.011719 " fill-opacity="1" fill-rule="nonzero"/></g><path fill="#0f595b" d="M 20.988281 31.460938 C 21.207031 31.753906 22.734375 32.238281 25.234375 32.238281 C 27.734375 32.238281 29.257812 31.753906 29.480469 31.460938 C 29.386719 31.351562 28.980469 31.105469 27.945312 30.910156 L 27.945312 31.460938 L 22.523438 31.460938 L 22.523438 30.910156 C 21.484375 31.105469 21.082031 31.351562 20.988281 31.460938 " fill-opacity="1" fill-rule="nonzero"/><path fill="#0f595b" d="M 16.324219 25.253906 L 18.648438 25.253906 L 18.648438 19.816406 L 16.53125 18.210938 L 16.324219 18.359375 L 16.324219 25.253906 " fill-opacity="1" fill-rule="nonzero"/><g clip-path="url(#da24666143)"><path fill="#0f595b" d="M 12.839844 20.597656 C 12.199219 20.597656 11.679688 20.078125 11.679688 19.433594 C 11.679688 18.792969 12.199219 18.273438 12.839844 18.273438 C 13.480469 18.273438 14 18.792969 14 19.433594 C 14 20.078125 13.480469 20.597656 12.839844 20.597656 Z M 15.210938 17.207031 L 14.148438 18.015625 C 13.800781 17.695312 13.34375 17.496094 12.839844 17.496094 C 11.773438 17.496094 10.902344 18.367188 10.902344 19.433594 C 10.902344 20.503906 11.773438 21.375 12.839844 21.375 C 13.90625 21.375 14.777344 20.503906 14.777344 19.433594 C 14.777344 19.15625 14.714844 18.894531 14.613281 18.65625 L 15.886719 17.71875 L 15.210938 17.207031 " fill-opacity="1" fill-rule="nonzero"/></g><path fill="#0f595b" d="M 23.296875 29.132812 L 23.296875 30.683594 L 27.167969 30.683594 L 27.167969 29.132812 L 23.296875 29.132812 " fill-opacity="1" fill-rule="nonzero"/><path fill="#0f595b" d="M 18.648438 15.691406 L 18.648438 14.597656 L 17.183594 15.710938 L 17.90625 16.238281 L 18.648438 15.691406 " fill-opacity="1" fill-rule="nonzero"/><g clip-path="url(#43cdc87995)"><path fill="#0f595b" d="M 29.105469 26.804688 L 29.882812 26.804688 L 29.882812 27.582031 L 29.105469 27.582031 Z M 30.65625 26.804688 L 31.429688 26.804688 L 31.429688 27.582031 L 30.65625 27.582031 Z M 32.203125 26.804688 L 32.980469 26.804688 L 32.980469 27.582031 L 32.203125 27.582031 Z M 16.324219 27.195312 C 16.324219 27.835938 16.847656 28.359375 17.488281 28.359375 L 32.980469 28.359375 C 33.621094 28.359375 34.140625 27.835938 34.140625 27.195312 L 34.140625 26.03125 L 16.324219 26.03125 L 16.324219 27.195312 " fill-opacity="1" fill-rule="nonzero"/></g><g clip-path="url(#83b052eb0e)"><path fill="#0f595b" d="M 32.980469 16.71875 L 31.816406 16.71875 L 31.816406 25.253906 L 34.140625 25.253906 L 34.140625 17.882812 C 34.140625 17.242188 33.621094 16.71875 32.980469 16.71875 " fill-opacity="1" fill-rule="nonzero"/></g><path fill="#0f595b" d="M 19.425781 25.253906 L 20.972656 25.253906 L 20.972656 23.703125 L 19.425781 23.703125 L 19.425781 25.253906 " fill-opacity="1" fill-rule="nonzero"/><path fill="#0f595b" d="M 20.972656 22.152344 L 19.425781 22.152344 L 19.425781 22.925781 L 20.972656 22.925781 L 20.972656 22.152344 " fill-opacity="1" fill-rule="nonzero"/><path fill="#0f595b" d="M 20.972656 20.597656 L 19.679688 20.597656 L 19.425781 20.402344 L 19.425781 21.375 L 20.972656 21.375 L 20.972656 20.597656 " fill-opacity="1" fill-rule="nonzero"/><g clip-path="url(#7acfebab3e)"><path fill="#0f595b" d="M 12.839844 12.839844 C 13.480469 12.839844 14 13.363281 14 14.003906 C 14 14.648438 13.480469 15.167969 12.839844 15.167969 C 12.199219 15.167969 11.679688 14.648438 11.679688 14.003906 C 11.679688 13.363281 12.199219 12.839844 12.839844 12.839844 Z M 12.839844 15.945312 C 13.34375 15.945312 13.800781 15.742188 14.148438 15.425781 L 19.941406 19.824219 L 21.480469 19.824219 L 14.613281 14.785156 C 14.714844 14.542969 14.777344 14.28125 14.777344 14.003906 C 14.777344 12.933594 13.90625 12.066406 12.839844 12.066406 C 11.773438 12.066406 10.902344 12.933594 10.902344 14.003906 C 10.902344 15.074219 11.773438 15.945312 12.839844 15.945312 " fill-opacity="1" fill-rule="nonzero"/></g></svg>