<svg xmlns="http://www.w3.org/2000/svg" xmlns:xlink="http://www.w3.org/1999/xlink" width="60" zoomAndPan="magnify" viewBox="0 0 45 44.999999" height="60" preserveAspectRatio="xMidYMid meet" version="1.0"><defs><clipPath id="09541d45cd"><path d="M 18.089844 29.855469 L 26.808594 29.855469 L 26.808594 33.1875 L 18.089844 33.1875 Z M 18.089844 29.855469 " clip-rule="nonzero"/></clipPath><clipPath id="6fc3f467ee"><path d="M 8.929688 11.476562 L 35.929688 11.476562 L 35.929688 29.046875 L 8.929688 29.046875 Z M 8.929688 11.476562 " clip-rule="nonzero"/></clipPath><clipPath id="e581f14f8f"><path d="M 10.6875 21.78125 L 15.203125 21.78125 L 15.203125 33.1875 L 10.6875 33.1875 Z M 10.6875 21.78125 " clip-rule="nonzero"/></clipPath></defs><g clip-path="url(#09541d45cd)"><path fill="#0f595b" d="M 25.859375 31.664062 L 24.453125 31.664062 L 24.453125 29.894531 L 20.410156 29.894531 L 20.410156 31.664062 L 19 31.664062 C 18.503906 31.664062 18.101562 32.0625 18.101562 32.554688 L 18.101562 33.1875 L 26.757812 33.1875 L 26.757812 32.554688 C 26.757812 32.0625 26.359375 31.664062 25.859375 31.664062 " fill-opacity="1" fill-rule="nonzero"/></g><path fill="#0f595b" d="M 32.511719 24.703125 L 32.511719 14.746094 L 12.351562 14.746094 L 12.351562 20.949219 L 16.023438 20.949219 L 16.023438 24.703125 L 32.511719 24.703125 " fill-opacity="1" fill-rule="nonzero"/><g clip-path="url(#6fc3f467ee)"><path fill="#0f595b" d="M 33.390625 27.503906 L 31.773438 27.503906 L 31.773438 26.636719 L 33.390625 26.636719 Z M 8.929688 11.476562 L 8.929688 29.023438 L 9.8125 29.023438 L 9.8125 20.949219 L 11.472656 20.949219 L 11.472656 13.878906 L 33.390625 13.878906 L 33.390625 25.574219 L 16.023438 25.574219 L 16.023438 29.023438 L 35.933594 29.023438 L 35.933594 11.476562 L 8.929688 11.476562 " fill-opacity="1" fill-rule="nonzero"/></g><g clip-path="url(#e581f14f8f)"><path fill="#0f595b" d="M 11.753906 30.589844 L 12.570312 30.589844 L 12.570312 31.460938 L 11.753906 31.460938 Z M 11.753906 29.050781 L 12.570312 29.050781 L 12.570312 29.917969 L 11.753906 29.917969 Z M 12.917969 26.277344 C 13.445312 26.277344 13.871094 26.699219 13.871094 27.21875 C 13.871094 27.738281 13.445312 28.160156 12.917969 28.160156 C 12.394531 28.160156 11.96875 27.738281 11.96875 27.21875 C 11.96875 26.699219 12.394531 26.277344 12.917969 26.277344 Z M 13.269531 22.726562 L 14.085938 22.726562 L 14.085938 23.59375 L 13.269531 23.59375 Z M 14.085938 29.917969 L 13.269531 29.917969 L 13.269531 29.050781 L 14.085938 29.050781 Z M 14.085938 31.460938 L 13.269531 31.460938 L 13.269531 30.589844 L 14.085938 30.589844 Z M 10.691406 32 C 10.691406 32.65625 11.230469 33.1875 11.894531 33.1875 L 13.945312 33.1875 C 14.609375 33.1875 15.144531 32.65625 15.144531 32 L 15.144531 21.820312 L 10.691406 21.820312 L 10.691406 32 " fill-opacity="1" fill-rule="nonzero"/></g></svg>