<svg xmlns="http://www.w3.org/2000/svg" xmlns:xlink="http://www.w3.org/1999/xlink" width="60" zoomAndPan="magnify" viewBox="0 0 45 44.999999" height="60" preserveAspectRatio="xMidYMid meet" version="1.0"><defs><clipPath id="8a1e92e95b"><path d="M 25 28 L 29 28 L 29 35.984375 L 25 35.984375 Z M 25 28 " clip-rule="nonzero"/></clipPath><clipPath id="e61acfde71"><path d="M 9.03125 9 L 36 9 L 36 35.984375 L 9.03125 35.984375 Z M 9.03125 9 " clip-rule="nonzero"/></clipPath><clipPath id="37fca3c44b"><path d="M 9.03125 8.984375 L 36.03125 8.984375 L 36.03125 35.984375 L 9.03125 35.984375 Z M 9.03125 8.984375 " clip-rule="nonzero"/></clipPath></defs><g clip-path="url(#8a1e92e95b)"><path stroke-linecap="butt" transform="matrix(0.052918, 0, 0, 0.0527344, 8.983084, 8.983586)" fill="none" stroke-linejoin="round" d="M 368.445571 489.718706 L 323.564771 489.718706 L 323.564771 383.644624 " stroke="#293d7c" stroke-width="14.003" stroke-opacity="1" stroke-miterlimit="10"/></g><g clip-path="url(#e61acfde71)"><path fill="#1b6b6d" d="M 17.054688 32.992188 L 14.679688 32.992188 L 14.679688 32.253906 L 16.683594 32.253906 L 16.683594 26.574219 L 17.425781 26.574219 L 17.425781 32.621094 C 17.425781 32.828125 17.257812 32.992188 17.054688 32.992188 Z M 18.683594 34.4375 L 16.679688 34.4375 L 16.679688 35.179688 L 19.054688 35.179688 C 19.257812 35.179688 19.425781 35.011719 19.425781 34.808594 L 19.425781 29.324219 L 18.683594 29.324219 Z M 28.476562 26.722656 L 27.734375 26.722656 L 27.734375 32.621094 C 27.734375 32.828125 27.898438 32.992188 28.105469 32.992188 L 30.480469 32.992188 L 30.480469 32.253906 L 28.476562 32.253906 Z M 16.683594 15.660156 L 17.425781 15.660156 L 17.425781 12.34375 C 17.425781 12.140625 17.257812 11.976562 17.054688 11.976562 L 14.679688 11.976562 L 14.679688 12.714844 L 16.683594 12.714844 Z M 19.054688 9.789062 L 16.679688 9.789062 L 16.679688 10.527344 L 18.683594 10.527344 L 18.683594 14.414062 L 19.425781 14.414062 L 19.425781 10.160156 C 19.425781 9.953125 19.257812 9.789062 19.054688 9.789062 Z M 27.734375 12.34375 L 27.734375 15.683594 L 28.476562 15.683594 L 28.476562 12.714844 L 30.480469 12.714844 L 30.480469 11.976562 L 28.105469 11.976562 C 27.898438 11.976562 27.734375 12.140625 27.734375 12.34375 Z M 28.480469 9.789062 L 26.105469 9.789062 C 25.902344 9.789062 25.734375 9.953125 25.734375 10.160156 L 25.734375 14.863281 L 26.476562 14.863281 L 26.476562 10.527344 L 28.480469 10.527344 Z M 10.210938 21.601562 L 14.648438 21.601562 L 14.648438 20.863281 L 10.582031 20.863281 L 10.582031 18.867188 L 9.84375 18.867188 L 9.84375 21.234375 C 9.84375 21.4375 10.007812 21.601562 10.210938 21.601562 Z M 30.460938 21.601562 L 34.746094 21.601562 C 34.953125 21.601562 35.117188 21.4375 35.117188 21.234375 L 35.117188 18.867188 L 34.375 18.867188 L 34.375 20.863281 L 30.460938 20.863281 Z M 15.480469 23.320312 L 10.3125 23.320312 C 10.109375 23.320312 9.941406 23.484375 9.941406 23.691406 L 9.941406 26.054688 L 10.683594 26.054688 L 10.683594 24.058594 L 15.480469 24.058594 Z M 34.847656 23.320312 L 29.914062 23.320312 L 29.914062 24.058594 L 34.476562 24.058594 L 34.476562 26.054688 L 35.21875 26.054688 L 35.21875 23.691406 C 35.21875 23.484375 35.050781 23.320312 34.847656 23.320312 Z M 34.847656 23.320312 " fill-opacity="1" fill-rule="nonzero"/></g><path fill="#0f595b" d="M 22.582031 32.722656 C 28.496094 29.074219 31.128906 23.742188 31.367188 16.816406 L 22.582031 12.203125 L 13.792969 16.816406 C 14.03125 23.742188 16.660156 29.074219 22.582031 32.722656 Z M 22.582031 32.722656 " fill-opacity="1" fill-rule="evenodd"/><path fill="#1b6b6d" d="M 22.582031 12.203125 L 13.792969 16.816406 C 14.03125 23.742188 16.660156 29.074219 22.582031 32.722656 Z M 22.582031 12.203125 " fill-opacity="1" fill-rule="evenodd"/><path fill="#1b6b6d" d="M 22.582031 30.207031 C 26.789062 27.207031 28.757812 23.152344 29.191406 18.039062 L 22.582031 14.570312 L 15.96875 18.039062 C 16.402344 23.152344 18.371094 27.207031 22.582031 30.207031 Z M 22.582031 30.207031 " fill-opacity="1" fill-rule="evenodd"/><path fill="#0f595b" d="M 22.582031 14.570312 L 15.96875 18.039062 C 16.402344 23.152344 18.371094 27.207031 22.582031 30.207031 Z M 22.582031 14.570312 " fill-opacity="1" fill-rule="evenodd"/><path fill="#7bb9bb" d="M 21.199219 19.921875 L 19.472656 21.640625 L 21.199219 23.359375 L 20.675781 23.882812 L 18.6875 21.902344 C 18.617188 21.832031 18.578125 21.738281 18.578125 21.640625 C 18.578125 21.542969 18.617188 21.449219 18.6875 21.378906 L 20.675781 19.398438 Z M 26.371094 21.371094 L 24.386719 19.390625 L 23.859375 19.914062 L 25.585938 21.632812 L 23.859375 23.351562 L 24.386719 23.875 L 26.371094 21.890625 C 26.515625 21.75 26.515625 21.515625 26.371094 21.371094 Z M 21.359375 24.695312 L 22.074219 24.886719 L 23.699219 18.847656 L 22.984375 18.65625 Z M 21.359375 24.695312 " fill-opacity="1" fill-rule="nonzero"/><g clip-path="url(#37fca3c44b)"><path fill="#7bb9bb" d="M 9.035156 18.0625 C 9.035156 17.414062 9.5625 16.886719 10.210938 16.886719 C 10.863281 16.886719 11.390625 17.414062 11.390625 18.0625 C 11.390625 18.710938 10.863281 19.238281 10.210938 19.238281 C 9.5625 19.238281 9.035156 18.710938 9.035156 18.0625 Z M 13.871094 13.597656 C 14.523438 13.597656 15.050781 13.070312 15.050781 12.421875 C 15.050781 11.773438 14.523438 11.25 13.871094 11.25 C 13.21875 11.25 12.691406 11.773438 12.691406 12.421875 C 12.691406 13.070312 13.21875 13.597656 13.871094 13.597656 Z M 15.871094 8.984375 C 15.222656 8.984375 14.691406 9.511719 14.691406 10.160156 C 14.691406 10.808594 15.222656 11.332031 15.871094 11.332031 C 16.523438 11.332031 17.050781 10.808594 17.050781 10.160156 C 17.050781 9.511719 16.523438 8.984375 15.871094 8.984375 Z M 29.289062 11.332031 C 29.941406 11.332031 30.46875 10.808594 30.46875 10.160156 C 30.46875 9.511719 29.941406 8.984375 29.289062 8.984375 C 28.636719 8.984375 28.109375 9.511719 28.109375 10.160156 C 28.109375 10.808594 28.636719 11.332031 29.289062 11.332031 Z M 31.289062 11.25 C 30.636719 11.25 30.109375 11.773438 30.109375 12.421875 C 30.109375 13.070312 30.636719 13.597656 31.289062 13.597656 C 31.9375 13.597656 32.46875 13.070312 32.46875 12.421875 C 32.46875 11.773438 31.9375 11.25 31.289062 11.25 Z M 34.746094 19.238281 C 35.398438 19.238281 35.925781 18.710938 35.925781 18.0625 C 35.925781 17.414062 35.398438 16.886719 34.746094 16.886719 C 34.097656 16.886719 33.566406 17.414062 33.566406 18.0625 C 33.566406 18.710938 34.097656 19.238281 34.746094 19.238281 Z M 34.847656 25.6875 C 34.195312 25.6875 33.667969 26.214844 33.667969 26.863281 C 33.667969 27.511719 34.195312 28.035156 34.847656 28.035156 C 35.5 28.035156 36.027344 27.511719 36.027344 26.863281 C 36.027344 26.214844 35.5 25.6875 34.847656 25.6875 Z M 31.289062 31.367188 C 30.636719 31.367188 30.109375 31.894531 30.109375 32.542969 C 30.109375 33.191406 30.636719 33.71875 31.289062 33.71875 C 31.9375 33.71875 32.46875 33.191406 32.46875 32.542969 C 32.46875 31.894531 31.9375 31.367188 31.289062 31.367188 Z M 29.289062 33.632812 C 28.636719 33.632812 28.109375 34.160156 28.109375 34.808594 C 28.109375 35.457031 28.636719 35.984375 29.289062 35.984375 C 29.941406 35.984375 30.46875 35.457031 30.46875 34.808594 C 30.46875 34.160156 29.941406 33.632812 29.289062 33.632812 Z M 15.871094 33.632812 C 15.222656 33.632812 14.691406 34.160156 14.691406 34.808594 C 14.691406 35.457031 15.222656 35.984375 15.871094 35.984375 C 16.523438 35.984375 17.050781 35.457031 17.050781 34.808594 C 17.050781 34.160156 16.523438 33.632812 15.871094 33.632812 Z M 15.050781 32.542969 C 15.050781 31.894531 14.523438 31.367188 13.871094 31.367188 C 13.21875 31.367188 12.691406 31.894531 12.691406 32.542969 C 12.691406 33.191406 13.21875 33.71875 13.871094 33.71875 C 14.523438 33.71875 15.050781 33.191406 15.050781 32.542969 Z M 10.3125 25.6875 C 9.660156 25.6875 9.132812 26.214844 9.132812 26.863281 C 9.132812 27.511719 9.660156 28.035156 10.3125 28.035156 C 10.964844 28.035156 11.492188 27.511719 11.492188 26.863281 C 11.492188 26.214844 10.964844 25.6875 10.3125 25.6875 Z M 10.3125 25.6875 " fill-opacity="1" fill-rule="nonzero"/></g></svg>