<svg xmlns="http://www.w3.org/2000/svg" xmlns:xlink="http://www.w3.org/1999/xlink" width="60" zoomAndPan="magnify" viewBox="0 0 45 44.999999" height="60" preserveAspectRatio="xMidYMid meet" version="1.0"><defs><clipPath id="ee3847a792"><path d="M 12.164062 8.074219 L 33 8.074219 L 33 36.574219 L 12.164062 36.574219 Z M 12.164062 8.074219 " clip-rule="nonzero"/></clipPath></defs><g clip-path="url(#ee3847a792)"><path fill="#0f595b" d="M 32.875 21.769531 C 32.875 21.023438 32.492188 19.8125 32.492188 19.8125 L 32.683594 19.734375 L 32.683594 19.253906 L 32.492188 19.253906 C 32.492188 19.253906 32.105469 18.042969 32.011719 17.855469 C 31.914062 17.667969 30.765625 15.621094 30.765625 15.621094 C 30.574219 14.691406 29.519531 14.039062 29.519531 14.039062 C 29.039062 13.945312 28.273438 13.292969 28.273438 13.292969 C 27.316406 12.359375 24.726562 10.589844 23.960938 10.125 C 23.195312 9.660156 21.085938 8.449219 21.085938 8.449219 C 20.414062 8.078125 19.265625 8.355469 19.265625 8.355469 C 18.691406 8.542969 18.210938 9.941406 18.210938 9.941406 C 18.210938 9.941406 17.730469 11.335938 17.730469 11.617188 C 17.730469 11.894531 16.484375 14.316406 16.199219 15.15625 C 15.910156 15.992188 15.335938 16.972656 15.335938 16.972656 L 15.335938 17.109375 C 15.335938 17.203125 14.378906 18.042969 14.1875 18.230469 C 13.992188 18.414062 13.898438 18.878906 13.800781 19.066406 C 13.707031 19.253906 13.324219 19.53125 13.226562 19.71875 C 13.132812 19.90625 13.132812 20.371094 13.132812 20.648438 C 13.132812 20.929688 12.75 21.210938 12.554688 21.394531 C 12.363281 21.582031 12.171875 22.234375 12.171875 22.234375 L 12.460938 22.328125 L 12.8125 22.417969 L 12.988281 22.417969 C 13.324219 22.414062 13.898438 22.046875 13.898438 22.046875 C 13.898438 22.046875 14.570312 22.046875 15.046875 21.859375 C 15.527344 21.675781 16.773438 20.277344 16.964844 20.089844 C 17.15625 19.90625 17.828125 19.625 17.828125 19.625 C 18.402344 19.160156 17.921875 18.414062 17.921875 18.414062 L 17.921875 18.042969 C 17.921875 17.761719 19.550781 16.085938 19.550781 16.085938 C 21.085938 14.875 21.46875 12.921875 21.46875 12.921875 L 21.660156 12.828125 C 21.851562 13.480469 23.480469 15.0625 23.480469 15.0625 C 24.152344 15.527344 24.824219 16.273438 24.824219 16.273438 L 24.824219 16.832031 C 24.824219 16.832031 25.015625 17.109375 25.015625 17.203125 C 25.015625 17.296875 25.109375 17.761719 25.109375 17.761719 C 25.109375 17.761719 25.78125 19.066406 26.164062 19.4375 C 26.546875 19.8125 27.601562 20.089844 27.792969 20.089844 C 27.984375 20.089844 27.792969 20.464844 27.792969 20.464844 C 27.792969 20.464844 28.082031 20.558594 28.175781 20.558594 C 28.273438 20.558594 28.273438 21.117188 28.273438 21.117188 L 28.371094 21.300781 L 27.984375 21.859375 L 27.792969 21.859375 C 27.601562 21.859375 27.410156 22.417969 27.410156 22.417969 L 26.546875 23.539062 L 25.496094 24.839844 L 24.535156 26.144531 C 23.863281 26.703125 23.960938 27.542969 23.960938 27.542969 L 23.671875 27.636719 L 23.769531 27.355469 L 23.480469 26.796875 C 23.386719 26.609375 22.585938 26.425781 22.585938 26.425781 C 21.789062 25.398438 20.511719 26.425781 20.511719 26.425781 C 19.9375 26.425781 19.265625 26.703125 19.265625 26.703125 C 19.550781 26.332031 18.59375 25.867188 18.59375 25.867188 L 18.402344 25.492188 C 18.402344 25.492188 18.308594 25.773438 18.308594 25.867188 C 18.308594 25.957031 18.113281 25.957031 18.019531 26.050781 C 17.921875 26.144531 17.445312 26.238281 17.347656 26.332031 C 17.253906 26.425781 17.253906 26.796875 17.253906 26.796875 L 16.964844 27.449219 C 16.675781 27.914062 17.636719 28.195312 17.636719 28.195312 C 17.636719 28.195312 18.019531 28.101562 17.636719 28.289062 C 17.253906 28.472656 17.253906 29.21875 17.253906 29.777344 C 17.253906 30.074219 17.605469 30.265625 17.9375 30.382812 C 17.878906 30.476562 17.816406 30.59375 17.769531 30.734375 C 17.644531 31.109375 17.59375 31.722656 18.050781 32.511719 C 18.066406 32.535156 18.089844 32.546875 18.113281 32.546875 C 18.128906 32.546875 18.140625 32.546875 18.148438 32.539062 C 18.183594 32.519531 18.195312 32.476562 18.175781 32.445312 C 17.597656 31.441406 17.859375 30.753906 18.074219 30.425781 C 18.097656 30.433594 18.117188 30.4375 18.140625 30.445312 C 18.121094 30.523438 18.105469 30.609375 18.09375 30.703125 C 17.921875 31.121094 17.851562 31.832031 18.636719 32.710938 C 18.648438 32.726562 18.671875 32.734375 18.691406 32.734375 C 18.707031 32.734375 18.722656 32.730469 18.738281 32.71875 C 18.765625 32.691406 18.769531 32.648438 18.746094 32.617188 C 18.472656 32.3125 18.308594 32.03125 18.214844 31.78125 C 18.347656 32.09375 18.585938 32.398438 18.988281 32.644531 C 19 32.652344 19.011719 32.65625 19.023438 32.65625 C 19.050781 32.65625 19.074219 32.644531 19.085938 32.625 C 19.105469 32.59375 19.097656 32.550781 19.0625 32.527344 C 18.472656 32.164062 18.1875 31.628906 18.210938 30.9375 C 18.214844 30.867188 18.222656 30.792969 18.230469 30.726562 C 18.273438 30.628906 18.320312 30.554688 18.359375 30.496094 C 18.445312 30.515625 18.5 30.523438 18.5 30.523438 L 18.558594 30.566406 C 18.628906 31.074219 18.835938 32.042969 19.410156 32.53125 C 19.421875 32.542969 19.441406 32.546875 19.457031 32.546875 C 19.476562 32.546875 19.496094 32.539062 19.511719 32.523438 C 19.535156 32.496094 19.535156 32.453125 19.503906 32.425781 C 19.023438 32.015625 18.8125 31.210938 18.722656 30.699219 L 19.292969 31.140625 C 19.3125 31.53125 19.390625 32.105469 19.652344 32.515625 C 19.664062 32.535156 19.6875 32.546875 19.710938 32.546875 C 19.726562 32.546875 19.738281 32.542969 19.75 32.539062 C 19.785156 32.515625 19.792969 32.472656 19.773438 32.441406 C 19.558594 32.101562 19.476562 31.625 19.445312 31.257812 L 19.457031 31.269531 L 19.9375 31.640625 C 19.9375 31.640625 20.222656 31.640625 20.511719 31.917969 C 20.796875 32.199219 20.796875 32.664062 20.894531 32.757812 C 20.988281 32.851562 21.46875 32.476562 21.46875 32.476562 L 21.566406 32.757812 L 21.851562 32.757812 L 21.949219 32.851562 C 22.042969 32.945312 22.332031 32.664062 22.332031 32.664062 L 22.714844 32.851562 C 22.90625 32.945312 23.097656 32.757812 23.097656 32.757812 C 23.097656 32.757812 23.289062 32.199219 23.769531 31.734375 C 24.25 31.269531 25.109375 30.894531 25.109375 30.894531 C 25.109375 31.082031 25.496094 31.828125 25.496094 31.828125 C 25.398438 32.199219 25.589844 34.714844 25.589844 34.714844 C 25.207031 34.714844 23.578125 35.085938 23.578125 35.085938 C 23.097656 34.992188 20.320312 35.179688 20.320312 35.179688 L 20.222656 35.179688 L 19.839844 34.898438 L 19.359375 34.808594 L 18.882812 34.808594 C 18.785156 34.808594 18.691406 35.085938 18.5 35.273438 C 18.308594 35.457031 17.828125 35.832031 17.828125 35.832031 L 17.15625 36.019531 L 16.484375 36.203125 C 16.484375 36.203125 16.199219 36.203125 16.101562 36.296875 C 16.007812 36.390625 16.007812 36.484375 16.007812 36.484375 L 22.585938 36.515625 L 27.507812 36.578125 C 27.507812 36.578125 27.890625 36.578125 27.890625 36.019531 C 27.890625 35.457031 28.175781 32.851562 28.175781 31.828125 C 28.175781 30.800781 27.792969 29.40625 27.792969 29.40625 C 27.890625 29.40625 28.175781 29.21875 28.175781 29.21875 L 29.519531 29.125 L 30.667969 28.289062 C 30.667969 28.289062 30.859375 28.101562 30.859375 27.914062 C 30.859375 27.726562 31.054688 27.355469 31.054688 27.355469 C 31.054688 27.355469 31.339844 26.519531 31.339844 26.425781 C 31.339844 26.332031 32.394531 24.65625 32.394531 24.65625 L 32.394531 24.5625 L 32.875 23.894531 C 33.160156 23.320312 32.875 21.769531 32.875 21.769531 Z M 32.875 21.769531 " fill-opacity="1" fill-rule="nonzero"/></g></svg>