<svg xmlns="http://www.w3.org/2000/svg" xmlns:xlink="http://www.w3.org/1999/xlink" width="60" zoomAndPan="magnify" viewBox="0 0 45 44.999999" height="60" preserveAspectRatio="xMidYMid meet" version="1.0"><defs><clipPath id="900fe39d07"><path d="M 9 22 L 36.667969 22 L 36.667969 36.082031 L 9 36.082031 Z M 9 22 " clip-rule="nonzero"/></clipPath><clipPath id="23c427acc8"><path d="M 15 9.082031 L 19 9.082031 L 19 17 L 15 17 Z M 15 9.082031 " clip-rule="nonzero"/></clipPath></defs><g clip-path="url(#900fe39d07)"><path fill="#0f595b" d="M 16.859375 34.886719 L 14.710938 34.886719 L 14.710938 24.496094 L 16.859375 24.496094 Z M 33.519531 24.496094 L 32.488281 25.664062 L 32.488281 23.488281 L 33.488281 23.488281 L 33.488281 22.382812 L 12.621094 22.382812 L 12.621094 23.488281 L 13.652344 23.488281 L 13.652344 25.664062 L 12.621094 24.496094 L 9.472656 24.496094 L 9.472656 26.550781 L 12.621094 26.550781 L 13.652344 27.746094 L 13.652344 34.242188 C 13.652344 35.257812 14.464844 36.082031 15.46875 36.082031 L 30.671875 36.082031 C 31.675781 36.082031 32.488281 35.257812 32.488281 34.242188 L 32.488281 27.746094 L 33.519531 26.550781 L 36.667969 26.550781 L 36.667969 24.496094 L 33.519531 24.496094 " fill-opacity="1" fill-rule="nonzero"/></g><path fill="#0f595b" d="M 26.820312 15.8125 L 22.800781 15.234375 L 22.898438 14.535156 L 26.917969 15.113281 L 26.820312 15.8125 " fill-opacity="1" fill-rule="nonzero"/><path fill="#0f595b" d="M 23.054688 16.671875 L 22.609375 16.605469 L 22.898438 14.535156 L 23.34375 14.597656 L 23.054688 16.671875 " fill-opacity="1" fill-rule="nonzero"/><path fill="#0f595b" d="M 26.570312 17.175781 L 26.121094 17.109375 L 26.414062 15.039062 L 26.859375 15.105469 L 26.570312 17.175781 " fill-opacity="1" fill-rule="nonzero"/><path fill="#0f595b" d="M 18.023438 19.191406 L 15.898438 18.882812 C 15.898438 18.882812 17.714844 16.390625 24.535156 17.371094 C 19.785156 16.6875 18.023438 19.191406 18.023438 19.191406 Z M 24.609375 16.855469 C 14.757812 15.441406 14.710938 19.703125 14.710938 19.703125 L 33.363281 22.382812 C 33.363281 22.382812 34.457031 18.269531 24.609375 16.855469 " fill-opacity="1" fill-rule="nonzero"/><path fill="#0f595b" d="M 14.710938 21.554688 C 14.710938 21.554688 8.167969 18.769531 15.621094 13.3125 C 15.621094 13.3125 11.832031 17.433594 14.710938 21.554688 " fill-opacity="1" fill-rule="nonzero"/><g clip-path="url(#23c427acc8)"><path fill="#0f595b" d="M 15.621094 16.433594 C 15.621094 16.433594 18.894531 13.535156 15.941406 9.082031 C 15.941406 9.082031 21.773438 13.046875 15.621094 16.433594 " fill-opacity="1" fill-rule="nonzero"/></g></svg>