<svg xmlns="http://www.w3.org/2000/svg" xmlns:xlink="http://www.w3.org/1999/xlink" width="60" zoomAndPan="magnify" viewBox="0 0 45 44.999999" height="60" preserveAspectRatio="xMidYMid meet" version="1.0"><defs><clipPath id="9e47d95323"><path d="M 18 11.320312 L 20 11.320312 L 20 12 L 18 12 Z M 18 11.320312 " clip-rule="nonzero"/></clipPath><clipPath id="38abbbd752"><path d="M 14 11.320312 L 19 11.320312 L 19 18 L 14 18 Z M 14 11.320312 " clip-rule="nonzero"/></clipPath><clipPath id="91237aae98"><path d="M 11 11.320312 L 34.207031 11.320312 L 34.207031 33.820312 L 11 33.820312 Z M 11 11.320312 " clip-rule="nonzero"/></clipPath></defs><path fill="#0f595b" d="M 26.957031 31.664062 C 26.855469 31.6875 26.757812 31.707031 26.65625 31.726562 C 26.558594 31.746094 26.492188 31.84375 26.511719 31.941406 C 26.527344 32.03125 26.605469 32.089844 26.691406 32.089844 C 26.703125 32.089844 26.714844 32.089844 26.726562 32.085938 C 26.832031 32.066406 26.9375 32.046875 27.039062 32.023438 C 27.140625 32 27.199219 31.898438 27.175781 31.800781 C 27.152344 31.703125 27.054688 31.640625 26.957031 31.664062 Z M 26.957031 31.664062 " fill-opacity="1" fill-rule="nonzero"/><path fill="#0f595b" d="M 33.808594 27.03125 C 33.722656 26.972656 33.609375 27 33.554688 27.082031 C 32.175781 29.191406 30.085938 30.75 27.675781 31.476562 C 27.578125 31.503906 27.523438 31.605469 27.554688 31.703125 C 27.578125 31.785156 27.648438 31.835938 27.730469 31.835938 C 27.746094 31.835938 27.765625 31.832031 27.78125 31.828125 C 30.277344 31.078125 32.4375 29.464844 33.863281 27.285156 C 33.917969 27.199219 33.894531 27.085938 33.808594 27.03125 Z M 33.808594 27.03125 " fill-opacity="1" fill-rule="nonzero"/><g clip-path="url(#9e47d95323)"><path fill="#0f595b" d="M 19.136719 11.839844 C 19.167969 11.839844 19.199219 11.832031 19.226562 11.816406 L 19.445312 11.695312 C 19.535156 11.648438 19.566406 11.535156 19.519531 11.449219 C 19.46875 11.359375 19.359375 11.328125 19.269531 11.375 L 19.046875 11.496094 C 18.960938 11.546875 18.925781 11.65625 18.976562 11.746094 C 19.007812 11.804688 19.074219 11.839844 19.136719 11.839844 Z M 19.136719 11.839844 " fill-opacity="1" fill-rule="nonzero"/></g><g clip-path="url(#38abbbd752)"><path fill="#0f595b" d="M 14.367188 17.066406 C 14.390625 17.078125 14.417969 17.082031 14.441406 17.082031 C 14.511719 17.082031 14.582031 17.039062 14.609375 16.96875 C 15.453125 14.992188 16.867188 13.324219 18.691406 12.144531 C 18.777344 12.085938 18.800781 11.972656 18.746094 11.890625 C 18.691406 11.804688 18.578125 11.78125 18.492188 11.835938 C 16.605469 13.054688 15.144531 14.78125 14.273438 16.828125 C 14.230469 16.917969 14.277344 17.027344 14.367188 17.066406 Z M 14.367188 17.066406 " fill-opacity="1" fill-rule="nonzero"/></g><g clip-path="url(#91237aae98)"><path fill="#0f595b" d="M 25.203125 31.011719 L 25.441406 30.796875 L 25.507812 30.789062 C 27.347656 30.605469 29.085938 29.898438 30.539062 28.75 L 30.539062 28.746094 C 30.539062 28.746094 30.539062 28.746094 30.542969 28.746094 C 31.597656 27.910156 32.488281 26.839844 33.109375 25.648438 C 33.828125 24.277344 34.207031 22.730469 34.207031 21.171875 C 34.207031 17.765625 32.464844 14.675781 29.542969 12.90625 C 28.039062 11.992188 26.304688 11.511719 24.53125 11.511719 C 23.3125 11.511719 22.128906 11.734375 21.007812 12.171875 C 18.480469 13.15625 16.472656 15.175781 15.496094 17.707031 L 15.5 17.710938 L 15.496094 17.710938 C 15.355469 18.074219 15.238281 18.453125 15.144531 18.832031 L 13.925781 17.476562 C 13.746094 17.28125 13.539062 17.128906 13.308594 17.03125 C 12.675781 16.753906 11.820312 16.519531 11.378906 16.960938 C 10.953125 17.386719 11.070312 18.210938 11.246094 18.828125 C 11.324219 19.097656 11.460938 19.339844 11.644531 19.546875 L 13.757812 21.894531 L 13.65625 22.730469 C 13.1875 22.878906 12.859375 23.195312 12.6875 23.675781 C 12.664062 23.738281 12.675781 23.8125 12.722656 23.859375 L 13.257812 24.449219 L 12.828125 25.695312 C 12.351562 25.878906 12 26.210938 11.789062 26.683594 C 11.757812 26.75 11.769531 26.828125 11.820312 26.878906 L 12.328125 27.445312 L 11.898438 28.914062 C 11.839844 29.105469 11.890625 29.320312 12.027344 29.46875 L 12.25 29.714844 C 12.464844 29.949219 12.824219 29.964844 13.0625 29.757812 L 16.574219 26.664062 C 17.738281 28.34375 19.425781 29.632812 21.347656 30.300781 C 21.363281 30.304688 21.679688 30.425781 21.976562 30.515625 L 22.300781 30.84375 L 21.292969 32.9375 C 21.261719 33.011719 21.246094 33.085938 21.246094 33.164062 C 21.246094 33.316406 21.304688 33.464844 21.40625 33.582031 C 21.527344 33.71875 21.699219 33.785156 21.871094 33.785156 C 22.019531 33.785156 22.167969 33.734375 22.285156 33.628906 L 23.90625 32.175781 L 24.632812 32.597656 C 24.703125 32.636719 24.789062 32.625 24.847656 32.574219 L 25.5 31.992188 C 25.558594 31.9375 25.578125 31.851562 25.542969 31.78125 Z M 30.695312 28.136719 C 30.710938 27.867188 30.671875 27.554688 30.464844 27.339844 C 30.289062 27.160156 30.015625 27.066406 29.65625 27.0625 C 29.394531 27.0625 29.152344 26.949219 28.984375 26.75 C 28.90625 26.65625 28.828125 26.554688 28.746094 26.445312 C 28.28125 25.835938 27.703125 25.078125 26.515625 25.199219 C 25.996094 25.25 25.5625 25.570312 25.226562 26.152344 C 25.058594 26.441406 24.726562 26.613281 24.394531 26.585938 C 24.144531 26.5625 23.820312 26.550781 23.5 26.671875 C 22.988281 26.863281 22.773438 27.273438 22.679688 27.589844 L 19.683594 23.890625 L 23.320312 20.5625 C 23.867188 21.164062 24.539062 21.527344 25.320312 21.632812 C 25.914062 21.710938 26.40625 22.109375 26.570312 22.640625 C 26.835938 23.507812 27.367188 24.605469 28.371094 24.921875 C 29.082031 25.140625 29.859375 25.0625 30.621094 24.695312 C 30.980469 24.515625 31.414062 24.609375 31.628906 24.910156 C 31.875 25.257812 32.226562 25.511719 32.675781 25.671875 C 32.164062 26.59375 31.492188 27.4375 30.695312 28.136719 Z M 15.695312 18.253906 C 15.804688 18.402344 15.972656 18.546875 16.214844 18.59375 C 16.273438 18.605469 16.335938 18.609375 16.40625 18.609375 C 16.636719 18.609375 16.929688 18.546875 17.28125 18.425781 C 17.492188 18.351562 17.714844 18.339844 17.925781 18.390625 C 18.257812 18.472656 18.746094 18.515625 19.160156 18.25 C 19.402344 18.089844 19.582031 17.832031 19.6875 17.488281 C 19.800781 17.121094 20.074219 16.839844 20.414062 16.730469 C 21.078125 16.527344 21.492188 16.160156 21.613281 15.671875 C 21.71875 15.246094 21.636719 14.820312 21.375 14.410156 C 21.171875 14.097656 21.125 13.726562 21.242188 13.359375 C 21.332031 13.074219 21.34375 12.773438 21.285156 12.460938 C 22.320312 12.074219 23.410156 11.875 24.53125 11.875 C 26.140625 11.875 27.710938 12.289062 29.101562 13.074219 C 28.453125 13.527344 28.03125 14.085938 27.84375 14.738281 C 27.742188 15.097656 27.414062 15.355469 27.027344 15.375 C 25.820312 15.433594 25.027344 15.617188 24.675781 15.917969 C 24.386719 16.164062 24.191406 16.5 24.085938 16.921875 C 24.011719 17.226562 23.832031 17.476562 23.601562 17.609375 C 23.46875 17.6875 23.355469 17.78125 23.265625 17.898438 C 23.046875 18.183594 23.035156 18.554688 23.050781 18.773438 L 21.726562 19.011719 L 21.21875 18.445312 C 21.175781 18.398438 21.109375 18.375 21.046875 18.386719 C 20.476562 18.496094 20.097656 18.808594 19.917969 19.328125 L 18.644531 19.613281 L 18.113281 19.019531 C 18.066406 18.96875 17.996094 18.949219 17.929688 18.964844 C 17.453125 19.09375 17.105469 19.382812 16.894531 19.824219 L 16.046875 19.839844 L 15.441406 19.164062 C 15.511719 18.855469 15.59375 18.550781 15.695312 18.253906 Z M 16.851562 26.421875 L 17.402344 25.933594 L 21.382812 29.921875 C 19.554688 29.265625 17.953125 28.027344 16.851562 26.421875 Z M 24.703125 32.210938 L 23.972656 31.792969 C 23.90625 31.753906 23.820312 31.761719 23.761719 31.816406 L 22.042969 33.355469 C 21.9375 33.449219 21.773438 33.441406 21.679688 33.335938 C 21.636719 33.289062 21.613281 33.226562 21.613281 33.164062 C 21.613281 33.132812 21.621094 33.101562 21.628906 33.082031 L 22.6875 30.886719 C 22.722656 30.816406 22.707031 30.730469 22.652344 30.675781 L 17.539062 25.550781 C 17.503906 25.515625 17.457031 25.5 17.410156 25.5 C 17.367188 25.5 17.324219 25.515625 17.289062 25.542969 L 12.820312 29.480469 C 12.730469 29.558594 12.601562 29.550781 12.523438 29.464844 L 12.296875 29.21875 C 12.246094 29.164062 12.230469 29.089844 12.25 29.019531 L 12.707031 27.449219 C 12.726562 27.386719 12.710938 27.320312 12.667969 27.273438 L 12.175781 26.726562 C 12.359375 26.375 12.640625 26.144531 13.03125 26.015625 C 13.085938 25.996094 13.128906 25.953125 13.148438 25.898438 L 13.640625 24.464844 C 13.660156 24.402344 13.648438 24.332031 13.601562 24.28125 L 13.074219 23.699219 C 13.226562 23.355469 13.488281 23.144531 13.867188 23.050781 C 13.941406 23.03125 13.996094 22.972656 14.003906 22.894531 L 14.132812 21.859375 C 14.136719 21.804688 14.121094 21.753906 14.085938 21.714844 L 11.917969 19.300781 C 11.769531 19.136719 11.660156 18.945312 11.597656 18.730469 C 11.390625 18 11.40625 17.453125 11.636719 17.222656 C 11.867188 16.992188 12.421875 17.046875 13.164062 17.367188 C 13.34375 17.445312 13.507812 17.566406 13.652344 17.722656 L 15.832031 20.144531 C 15.867188 20.183594 15.917969 20.207031 15.96875 20.207031 L 17.019531 20.191406 C 17.09375 20.1875 17.15625 20.144531 17.183594 20.074219 C 17.332031 19.710938 17.574219 19.476562 17.917969 19.351562 L 18.441406 19.941406 C 18.488281 19.988281 18.554688 20.011719 18.621094 19.996094 L 20.101562 19.660156 C 20.164062 19.644531 20.21875 19.597656 20.238281 19.53125 C 20.351562 19.125 20.609375 18.875 21.015625 18.769531 L 21.519531 19.332031 C 21.5625 19.378906 21.625 19.398438 21.6875 19.390625 L 23.285156 19.105469 C 23.367188 19.089844 23.449219 19.117188 23.507812 19.179688 L 23.703125 19.402344 C 23.785156 19.496094 23.777344 19.644531 23.683594 19.730469 L 19.304688 23.734375 C 19.234375 23.800781 19.226562 23.910156 19.289062 23.988281 L 23.84375 29.605469 C 23.890625 29.667969 23.972656 29.691406 24.046875 29.664062 L 26.335938 28.851562 C 26.429688 28.824219 26.527344 28.851562 26.59375 28.925781 C 26.648438 28.984375 26.660156 29.050781 26.660156 29.09375 C 26.660156 29.167969 26.628906 29.234375 26.574219 29.285156 L 24.859375 30.828125 C 24.800781 30.882812 24.78125 30.96875 24.8125 31.039062 L 25.152344 31.808594 Z M 24.703125 32.210938 " fill-opacity="1" fill-rule="nonzero"/></g><path fill="#0f595b" d="M 23.242188 22.242188 C 22.6875 22.15625 22.019531 22.59375 21.605469 23.066406 C 21.136719 23.59375 20.945312 24.171875 21.078125 24.644531 C 21.246094 25.230469 21.839844 25.660156 22.628906 25.761719 C 22.742188 25.777344 22.859375 25.785156 22.980469 25.785156 C 23.601562 25.785156 24.261719 25.578125 24.570312 25.0625 C 24.84375 24.609375 24.84375 24.015625 24.570312 23.425781 C 24.273438 22.792969 23.742188 22.320312 23.242188 22.242188 Z M 23.242188 22.242188 " fill-opacity="1" fill-rule="nonzero"/></svg>