<svg xmlns="http://www.w3.org/2000/svg" xmlns:xlink="http://www.w3.org/1999/xlink" width="40" zoomAndPan="magnify" viewBox="0 0 30 30.000001" height="40" preserveAspectRatio="xMidYMid meet" version="1.0"><defs><clipPath id="4cfffef990"><path d="M 0.484375 0 L 29.515625 0 L 29.515625 29.03125 L 0.484375 29.03125 Z M 0.484375 0 " clip-rule="nonzero"/></clipPath><clipPath id="b2a0ca6fad"><path d="M 9.382812 6.671875 L 20.269531 6.671875 L 20.269531 22.640625 L 9.382812 22.640625 Z M 9.382812 6.671875 " clip-rule="nonzero"/></clipPath></defs><g clip-path="url(#4cfffef990)"><path fill="#ffffff" d="M 0.484375 0 L 29.515625 0 L 29.515625 36.289062 L 0.484375 36.289062 Z M 0.484375 0 " fill-opacity="1" fill-rule="nonzero"/><path fill="#ffffff" d="M 0.484375 0 L 29.515625 0 L 29.515625 29.03125 L 0.484375 29.03125 Z M 0.484375 0 " fill-opacity="1" fill-rule="nonzero"/><path fill="#ffffff" d="M 0.484375 0 L 29.515625 0 L 29.515625 29.03125 L 0.484375 29.03125 Z M 0.484375 0 " fill-opacity="1" fill-rule="nonzero"/></g><g clip-path="url(#b2a0ca6fad)"><path fill="#32a0a4" d="M 20.121094 14.34375 C 20.121094 13.929688 19.921875 13.25 19.921875 13.25 L 20.019531 13.207031 L 20.019531 12.9375 L 19.921875 12.9375 C 19.921875 12.9375 19.722656 12.257812 19.671875 12.152344 C 19.621094 12.050781 19.027344 10.902344 19.027344 10.902344 C 18.925781 10.378906 18.378906 10.015625 18.378906 10.015625 C 18.132812 9.960938 17.734375 9.597656 17.734375 9.597656 C 17.238281 9.074219 15.894531 8.082031 15.496094 7.824219 C 15.097656 7.5625 14.007812 6.882812 14.007812 6.882812 C 13.65625 6.675781 13.0625 6.832031 13.0625 6.832031 C 12.761719 6.9375 12.515625 7.71875 12.515625 7.71875 C 12.515625 7.71875 12.265625 8.5 12.265625 8.65625 C 12.265625 8.8125 11.621094 10.171875 11.472656 10.640625 C 11.320312 11.109375 11.023438 11.660156 11.023438 11.660156 L 11.023438 11.738281 C 11.023438 11.789062 10.527344 12.257812 10.425781 12.363281 C 10.328125 12.46875 10.277344 12.726562 10.230469 12.832031 C 10.179688 12.9375 9.980469 13.09375 9.929688 13.199219 C 9.878906 13.300781 9.878906 13.5625 9.878906 13.71875 C 9.878906 13.875 9.683594 14.03125 9.582031 14.136719 C 9.484375 14.242188 9.382812 14.605469 9.382812 14.605469 L 9.53125 14.660156 L 9.714844 14.707031 L 9.804688 14.707031 C 9.980469 14.707031 10.277344 14.503906 10.277344 14.503906 C 10.277344 14.503906 10.625 14.503906 10.875 14.398438 C 11.125 14.292969 11.769531 13.511719 11.867188 13.40625 C 11.96875 13.300781 12.316406 13.144531 12.316406 13.144531 C 12.613281 12.882812 12.367188 12.46875 12.367188 12.46875 L 12.367188 12.257812 C 12.367188 12.101562 13.210938 11.164062 13.210938 11.164062 C 14.007812 10.484375 14.203125 9.386719 14.203125 9.386719 L 14.304688 9.335938 C 14.402344 9.703125 15.25 10.589844 15.25 10.589844 C 15.597656 10.847656 15.945312 11.265625 15.945312 11.265625 L 15.945312 11.578125 C 15.945312 11.578125 16.042969 11.738281 16.042969 11.789062 C 16.042969 11.839844 16.09375 12.101562 16.09375 12.101562 C 16.09375 12.101562 16.441406 12.832031 16.640625 13.042969 C 16.839844 13.25 17.386719 13.40625 17.484375 13.40625 C 17.585938 13.40625 17.484375 13.613281 17.484375 13.613281 C 17.484375 13.613281 17.632812 13.667969 17.683594 13.667969 C 17.734375 13.667969 17.734375 13.980469 17.734375 13.980469 L 17.785156 14.085938 L 17.585938 14.398438 L 17.484375 14.398438 C 17.386719 14.398438 17.285156 14.707031 17.285156 14.707031 L 16.839844 15.335938 L 16.292969 16.066406 L 15.796875 16.796875 C 15.445312 17.109375 15.496094 17.582031 15.496094 17.582031 L 15.347656 17.632812 L 15.398438 17.476562 L 15.25 17.164062 C 15.199219 17.058594 14.785156 16.953125 14.785156 16.953125 C 14.371094 16.378906 13.707031 16.953125 13.707031 16.953125 C 13.410156 16.953125 13.0625 17.109375 13.0625 17.109375 C 13.210938 16.902344 12.714844 16.640625 12.714844 16.640625 L 12.613281 16.433594 C 12.613281 16.433594 12.566406 16.589844 12.566406 16.640625 C 12.566406 16.695312 12.464844 16.695312 12.414062 16.746094 C 12.367188 16.796875 12.117188 16.851562 12.066406 16.902344 C 12.019531 16.953125 12.019531 17.164062 12.019531 17.164062 L 11.867188 17.527344 C 11.71875 17.789062 12.214844 17.945312 12.214844 17.945312 C 12.214844 17.945312 12.414062 17.894531 12.214844 18 C 12.019531 18.101562 12.019531 18.519531 12.019531 18.832031 C 12.019531 19 12.199219 19.105469 12.371094 19.171875 C 12.34375 19.222656 12.3125 19.289062 12.285156 19.367188 C 12.222656 19.578125 12.195312 19.921875 12.433594 20.367188 C 12.441406 20.378906 12.453125 20.386719 12.464844 20.386719 C 12.472656 20.386719 12.476562 20.382812 12.484375 20.378906 C 12.5 20.371094 12.507812 20.347656 12.496094 20.328125 C 12.195312 19.765625 12.332031 19.382812 12.445312 19.195312 C 12.457031 19.199219 12.464844 19.203125 12.476562 19.207031 C 12.46875 19.25 12.460938 19.300781 12.453125 19.351562 C 12.363281 19.585938 12.328125 19.984375 12.734375 20.476562 C 12.742188 20.484375 12.753906 20.488281 12.761719 20.488281 C 12.773438 20.488281 12.78125 20.488281 12.789062 20.480469 C 12.804688 20.464844 12.804688 20.441406 12.792969 20.425781 C 12.648438 20.253906 12.566406 20.097656 12.519531 19.953125 C 12.585938 20.132812 12.710938 20.300781 12.917969 20.441406 C 12.921875 20.445312 12.929688 20.445312 12.9375 20.445312 C 12.949219 20.445312 12.960938 20.441406 12.96875 20.429688 C 12.980469 20.410156 12.976562 20.386719 12.957031 20.375 C 12.652344 20.167969 12.5 19.871094 12.515625 19.484375 C 12.515625 19.441406 12.519531 19.402344 12.523438 19.363281 C 12.546875 19.3125 12.570312 19.269531 12.59375 19.238281 C 12.636719 19.246094 12.664062 19.25 12.664062 19.25 L 12.695312 19.277344 C 12.730469 19.558594 12.839844 20.101562 13.136719 20.375 C 13.144531 20.382812 13.152344 20.386719 13.160156 20.386719 C 13.171875 20.386719 13.183594 20.382812 13.1875 20.371094 C 13.203125 20.355469 13.199219 20.332031 13.183594 20.316406 C 12.933594 20.085938 12.828125 19.636719 12.78125 19.347656 L 13.074219 19.597656 C 13.085938 19.816406 13.125 20.136719 13.261719 20.367188 C 13.269531 20.378906 13.28125 20.386719 13.292969 20.386719 C 13.300781 20.386719 13.308594 20.382812 13.3125 20.378906 C 13.332031 20.367188 13.335938 20.34375 13.324219 20.324219 C 13.214844 20.136719 13.171875 19.867188 13.15625 19.664062 L 13.160156 19.667969 L 13.410156 19.875 C 13.410156 19.875 13.558594 19.875 13.707031 20.035156 C 13.855469 20.191406 13.855469 20.449219 13.90625 20.503906 C 13.957031 20.554688 14.203125 20.347656 14.203125 20.347656 L 14.253906 20.503906 L 14.402344 20.503906 L 14.453125 20.554688 C 14.503906 20.605469 14.652344 20.449219 14.652344 20.449219 L 14.851562 20.554688 C 14.949219 20.605469 15.050781 20.503906 15.050781 20.503906 C 15.050781 20.503906 15.148438 20.191406 15.398438 19.929688 C 15.644531 19.667969 16.09375 19.460938 16.09375 19.460938 C 16.09375 19.5625 16.292969 19.980469 16.292969 19.980469 C 16.242188 20.191406 16.34375 21.597656 16.34375 21.597656 C 16.144531 21.597656 15.296875 21.808594 15.296875 21.808594 C 15.050781 21.753906 13.609375 21.859375 13.609375 21.859375 L 13.558594 21.859375 L 13.359375 21.703125 L 13.109375 21.652344 L 12.863281 21.652344 C 12.8125 21.652344 12.761719 21.808594 12.664062 21.910156 C 12.566406 22.015625 12.316406 22.226562 12.316406 22.226562 L 11.96875 22.328125 L 11.621094 22.433594 C 11.621094 22.433594 11.472656 22.433594 11.421875 22.484375 C 11.371094 22.539062 11.371094 22.589844 11.371094 22.589844 L 14.785156 22.609375 L 17.335938 22.640625 C 17.335938 22.640625 17.535156 22.640625 17.535156 22.328125 C 17.535156 22.015625 17.683594 20.554688 17.683594 19.980469 C 17.683594 19.40625 17.484375 18.625 17.484375 18.625 C 17.535156 18.625 17.683594 18.519531 17.683594 18.519531 L 18.378906 18.46875 L 18.976562 18 C 18.976562 18 19.074219 17.894531 19.074219 17.789062 C 19.074219 17.683594 19.175781 17.476562 19.175781 17.476562 C 19.175781 17.476562 19.324219 17.007812 19.324219 16.953125 C 19.324219 16.902344 19.871094 15.964844 19.871094 15.964844 L 19.871094 15.910156 L 20.121094 15.535156 C 20.269531 15.214844 20.121094 14.34375 20.121094 14.34375 Z M 20.121094 14.34375 " fill-opacity="1" fill-rule="nonzero"/></g></svg>