<svg xmlns="http://www.w3.org/2000/svg" xmlns:xlink="http://www.w3.org/1999/xlink" width="80" zoomAndPan="magnify" viewBox="0 0 60 60" height="80" preserveAspectRatio="xMidYMid meet" version="1.0"><defs><clipPath id="85d8d2ba4d"><path d="M 18 29 L 31 29 L 31 42.457031 L 18 42.457031 Z M 18 29 " clip-rule="nonzero"/></clipPath><clipPath id="390de7c111"><path d="M 28 25 L 42.457031 25 L 42.457031 40 L 28 40 Z M 28 25 " clip-rule="nonzero"/></clipPath><clipPath id="2f72aee8a2"><path d="M 17.707031 17.707031 L 33 17.707031 L 33 33 L 17.707031 33 Z M 17.707031 17.707031 " clip-rule="nonzero"/></clipPath></defs><g clip-path="url(#85d8d2ba4d)"><path fill="#546e7a" d="M 30.777344 36.222656 C 30.777344 36.628906 30.734375 37.035156 30.65625 37.4375 C 30.578125 37.839844 30.457031 38.230469 30.300781 38.609375 C 30.144531 38.984375 29.953125 39.34375 29.726562 39.6875 C 29.496094 40.027344 29.238281 40.339844 28.949219 40.632812 C 28.660156 40.921875 28.34375 41.179688 28.003906 41.40625 C 27.664062 41.632812 27.304688 41.828125 26.925781 41.984375 C 26.546875 42.140625 26.15625 42.257812 25.753906 42.339844 C 25.355469 42.417969 24.949219 42.457031 24.539062 42.457031 C 24.128906 42.457031 23.722656 42.417969 23.320312 42.339844 C 22.921875 42.257812 22.53125 42.140625 22.152344 41.984375 C 21.773438 41.828125 21.414062 41.632812 21.074219 41.40625 C 20.734375 41.179688 20.417969 40.921875 20.128906 40.632812 C 19.839844 40.339844 19.582031 40.027344 19.351562 39.6875 C 19.125 39.34375 18.933594 38.984375 18.777344 38.609375 C 18.621094 38.230469 18.5 37.839844 18.421875 37.4375 C 18.34375 37.035156 18.300781 36.628906 18.300781 36.222656 C 18.300781 35.8125 18.34375 35.40625 18.421875 35.003906 C 18.5 34.601562 18.621094 34.210938 18.777344 33.835938 C 18.933594 33.457031 19.125 33.097656 19.351562 32.757812 C 19.582031 32.414062 19.839844 32.101562 20.128906 31.8125 C 20.417969 31.519531 20.734375 31.261719 21.074219 31.035156 C 21.414062 30.808594 21.773438 30.617188 22.152344 30.457031 C 22.53125 30.300781 22.921875 30.183594 23.320312 30.105469 C 23.722656 30.023438 24.128906 29.984375 24.539062 29.984375 C 24.949219 29.984375 25.355469 30.023438 25.753906 30.105469 C 26.15625 30.183594 26.546875 30.300781 26.925781 30.457031 C 27.304688 30.617188 27.664062 30.808594 28.003906 31.035156 C 28.34375 31.261719 28.660156 31.519531 28.949219 31.8125 C 29.238281 32.101562 29.496094 32.414062 29.726562 32.757812 C 29.953125 33.097656 30.144531 33.457031 30.300781 33.835938 C 30.457031 34.210938 30.578125 34.601562 30.65625 35.003906 C 30.734375 35.40625 30.777344 35.8125 30.777344 36.222656 Z M 30.777344 36.222656 " fill-opacity="1" fill-rule="nonzero"/></g><path fill="#ffffff" d="M 22.707031 38.992188 C 22.53125 38.992188 22.359375 38.957031 22.195312 38.890625 C 22.03125 38.824219 21.886719 38.726562 21.761719 38.601562 C 21.636719 38.476562 21.542969 38.332031 21.472656 38.167969 C 21.40625 38.003906 21.371094 37.832031 21.371094 37.65625 L 21.371094 37.160156 C 21.371094 37.0625 21.320312 37.011719 21.222656 37.011719 C 21.058594 37.011719 20.917969 36.953125 20.800781 36.839844 C 20.6875 36.722656 20.628906 36.582031 20.628906 36.417969 C 20.628906 36.253906 20.6875 36.113281 20.800781 36 C 20.917969 35.882812 21.058594 35.824219 21.222656 35.824219 C 21.320312 35.824219 21.371094 35.777344 21.371094 35.675781 L 21.371094 35.179688 C 21.371094 35.003906 21.40625 34.832031 21.472656 34.671875 C 21.542969 34.507812 21.636719 34.363281 21.761719 34.238281 C 21.886719 34.113281 22.03125 34.015625 22.195312 33.945312 C 22.359375 33.878906 22.53125 33.84375 22.707031 33.84375 C 22.871094 33.84375 23.011719 33.902344 23.128906 34.019531 C 23.242188 34.136719 23.300781 34.273438 23.300781 34.4375 C 23.300781 34.601562 23.242188 34.742188 23.128906 34.859375 C 23.011719 34.976562 22.871094 35.03125 22.707031 35.03125 C 22.609375 35.03125 22.558594 35.082031 22.558594 35.179688 L 22.558594 35.675781 C 22.558594 35.945312 22.484375 36.195312 22.332031 36.417969 C 22.484375 36.644531 22.558594 36.890625 22.558594 37.160156 L 22.558594 37.65625 C 22.558594 37.753906 22.609375 37.804688 22.707031 37.804688 C 22.871094 37.804688 23.011719 37.863281 23.128906 37.980469 C 23.242188 38.09375 23.300781 38.234375 23.300781 38.398438 C 23.300781 38.5625 23.242188 38.703125 23.128906 38.820312 C 23.011719 38.933594 22.871094 38.992188 22.707031 38.992188 Z M 22.707031 38.992188 " fill-opacity="1" fill-rule="nonzero"/><path fill="#ffffff" d="M 26.371094 38.992188 C 26.207031 38.992188 26.066406 38.933594 25.949219 38.820312 C 25.835938 38.703125 25.777344 38.5625 25.777344 38.398438 C 25.777344 38.234375 25.835938 38.09375 25.949219 37.980469 C 26.066406 37.863281 26.207031 37.804688 26.371094 37.804688 C 26.46875 37.804688 26.519531 37.753906 26.519531 37.65625 L 26.519531 37.160156 C 26.519531 36.890625 26.59375 36.644531 26.746094 36.417969 C 26.59375 36.195312 26.519531 35.945312 26.519531 35.675781 L 26.519531 35.179688 C 26.519531 35.082031 26.46875 35.03125 26.371094 35.03125 C 26.207031 35.03125 26.066406 34.976562 25.949219 34.859375 C 25.835938 34.742188 25.777344 34.601562 25.777344 34.4375 C 25.777344 34.273438 25.835938 34.136719 25.949219 34.019531 C 26.066406 33.902344 26.207031 33.84375 26.371094 33.84375 C 26.546875 33.84375 26.71875 33.878906 26.882812 33.945312 C 27.046875 34.015625 27.191406 34.113281 27.316406 34.238281 C 27.441406 34.363281 27.535156 34.507812 27.605469 34.671875 C 27.671875 34.832031 27.707031 35.003906 27.707031 35.179688 L 27.707031 35.675781 C 27.707031 35.777344 27.757812 35.824219 27.855469 35.824219 C 28.019531 35.824219 28.160156 35.882812 28.277344 36 C 28.390625 36.113281 28.449219 36.253906 28.449219 36.417969 C 28.449219 36.582031 28.390625 36.722656 28.277344 36.839844 C 28.160156 36.953125 28.019531 37.011719 27.855469 37.011719 C 27.757812 37.011719 27.707031 37.0625 27.707031 37.160156 L 27.707031 37.65625 C 27.707031 37.832031 27.671875 38.003906 27.605469 38.167969 C 27.535156 38.332031 27.441406 38.476562 27.316406 38.601562 C 27.191406 38.726562 27.046875 38.824219 26.882812 38.890625 C 26.71875 38.957031 26.546875 38.992188 26.371094 38.992188 Z M 26.371094 38.992188 " fill-opacity="1" fill-rule="nonzero"/><g clip-path="url(#390de7c111)"><path fill="#1b6b6d" d="M 42.457031 32.460938 C 42.457031 32.90625 42.414062 33.351562 42.328125 33.792969 C 42.238281 34.230469 42.109375 34.660156 41.9375 35.074219 C 41.765625 35.488281 41.554688 35.882812 41.308594 36.253906 C 41.058594 36.628906 40.773438 36.972656 40.457031 37.289062 C 40.140625 37.605469 39.796875 37.890625 39.421875 38.140625 C 39.050781 38.386719 38.65625 38.597656 38.242188 38.769531 C 37.828125 38.941406 37.398438 39.070312 36.960938 39.160156 C 36.519531 39.246094 36.074219 39.289062 35.628906 39.289062 C 35.179688 39.289062 34.734375 39.246094 34.292969 39.160156 C 33.855469 39.070312 33.425781 38.941406 33.011719 38.769531 C 32.597656 38.597656 32.203125 38.386719 31.832031 38.140625 C 31.457031 37.890625 31.113281 37.605469 30.796875 37.289062 C 30.480469 36.972656 30.195312 36.628906 29.945312 36.253906 C 29.699219 35.882812 29.488281 35.488281 29.316406 35.074219 C 29.144531 34.660156 29.015625 34.230469 28.925781 33.792969 C 28.839844 33.351562 28.796875 32.90625 28.796875 32.460938 C 28.796875 32.011719 28.839844 31.566406 28.925781 31.125 C 29.015625 30.6875 29.144531 30.257812 29.316406 29.84375 C 29.488281 29.429688 29.699219 29.035156 29.945312 28.664062 C 30.195312 28.289062 30.480469 27.945312 30.796875 27.628906 C 31.113281 27.3125 31.457031 27.027344 31.832031 26.777344 C 32.203125 26.53125 32.597656 26.320312 33.011719 26.148438 C 33.425781 25.976562 33.855469 25.847656 34.292969 25.757812 C 34.734375 25.671875 35.179688 25.628906 35.628906 25.628906 C 36.074219 25.628906 36.519531 25.671875 36.960938 25.757812 C 37.398438 25.847656 37.828125 25.976562 38.242188 26.148438 C 38.65625 26.320312 39.050781 26.53125 39.421875 26.777344 C 39.796875 27.027344 40.140625 27.3125 40.457031 27.628906 C 40.773438 27.945312 41.058594 28.289062 41.308594 28.664062 C 41.554688 29.035156 41.765625 29.429688 41.9375 29.84375 C 42.109375 30.257812 42.238281 30.6875 42.328125 31.125 C 42.414062 31.566406 42.457031 32.011719 42.457031 32.460938 Z M 42.457031 32.460938 " fill-opacity="1" fill-rule="nonzero"/></g><path fill="#ffffff" d="M 32.152344 32.710938 L 33.007812 31.585938 C 33.109375 31.453125 33.148438 31.308594 33.125 31.144531 C 33.105469 30.984375 33.027344 30.851562 32.898438 30.753906 C 32.765625 30.652344 32.621094 30.613281 32.457031 30.636719 C 32.292969 30.660156 32.164062 30.734375 32.066406 30.863281 L 30.933594 32.351562 C 30.851562 32.457031 30.8125 32.578125 30.8125 32.710938 C 30.8125 32.84375 30.851562 32.964844 30.933594 33.070312 L 32.066406 34.554688 C 32.164062 34.6875 32.292969 34.765625 32.457031 34.785156 C 32.621094 34.808594 32.769531 34.769531 32.898438 34.671875 C 33.03125 34.570312 33.105469 34.441406 33.128906 34.277344 C 33.148438 34.113281 33.109375 33.964844 33.007812 33.835938 Z M 32.152344 32.710938 " fill-opacity="1" fill-rule="nonzero"/><path fill="#ffffff" d="M 40.320312 32.347656 L 39.183594 30.863281 C 39.085938 30.730469 38.957031 30.652344 38.792969 30.628906 C 38.628906 30.605469 38.480469 30.644531 38.347656 30.746094 C 38.214844 30.847656 38.140625 30.980469 38.117188 31.144531 C 38.097656 31.308594 38.140625 31.457031 38.242188 31.585938 L 39.101562 32.710938 L 38.242188 33.835938 C 38.140625 33.964844 38.097656 34.113281 38.117188 34.277344 C 38.140625 34.441406 38.214844 34.574219 38.347656 34.675781 C 38.480469 34.773438 38.628906 34.8125 38.792969 34.789062 C 38.957031 34.765625 39.085938 34.6875 39.183594 34.554688 L 40.320312 33.070312 C 40.402344 32.964844 40.441406 32.84375 40.441406 32.710938 C 40.441406 32.578125 40.402344 32.457031 40.320312 32.347656 Z M 40.320312 32.347656 " fill-opacity="1" fill-rule="nonzero"/><path fill="#ffffff" d="M 35.558594 33.304688 C 35.394531 33.304688 35.253906 33.246094 35.136719 33.128906 C 35.019531 33.015625 34.960938 32.875 34.960938 32.710938 L 34.960938 32.144531 C 34.964844 31.929688 35.027344 31.730469 35.15625 31.554688 C 35.28125 31.378906 35.449219 31.257812 35.65625 31.1875 C 35.847656 31.160156 35.949219 30.730469 35.671875 30.644531 C 35.433594 30.570312 35.277344 30.710938 35.265625 30.914062 C 35.265625 31.078125 35.207031 31.21875 35.09375 31.335938 C 34.976562 31.449219 34.835938 31.507812 34.671875 31.507812 C 34.507812 31.507812 34.367188 31.449219 34.253906 31.335938 C 34.136719 31.21875 34.078125 31.078125 34.078125 30.914062 C 34.054688 29.925781 35.105469 29.1875 36.050781 29.515625 C 37.308594 29.960938 37.359375 31.765625 36.152344 32.269531 L 36.152344 32.710938 C 36.152344 32.875 36.09375 33.015625 35.976562 33.128906 C 35.859375 33.246094 35.722656 33.304688 35.558594 33.304688 Z M 35.558594 33.304688 " fill-opacity="1" fill-rule="nonzero"/><g clip-path="url(#2f72aee8a2)"><path fill="#0f595b" d="M 32.953125 25.332031 C 32.953125 25.832031 32.90625 26.328125 32.808594 26.816406 C 32.710938 27.308594 32.566406 27.785156 32.375 28.25 C 32.183594 28.710938 31.949219 29.148438 31.667969 29.566406 C 31.390625 29.980469 31.074219 30.367188 30.722656 30.722656 C 30.367188 31.074219 29.980469 31.390625 29.566406 31.667969 C 29.148438 31.949219 28.710938 32.183594 28.25 32.375 C 27.785156 32.566406 27.308594 32.710938 26.816406 32.808594 C 26.328125 32.90625 25.832031 32.953125 25.332031 32.953125 C 24.832031 32.953125 24.335938 32.90625 23.84375 32.808594 C 23.351562 32.710938 22.875 32.566406 22.414062 32.375 C 21.953125 32.183594 21.511719 31.949219 21.097656 31.667969 C 20.679688 31.390625 20.292969 31.074219 19.941406 30.722656 C 19.585938 30.367188 19.269531 29.980469 18.992188 29.566406 C 18.714844 29.148438 18.480469 28.710938 18.289062 28.25 C 18.097656 27.785156 17.953125 27.308594 17.855469 26.816406 C 17.757812 26.328125 17.707031 25.832031 17.707031 25.332031 C 17.707031 24.832031 17.757812 24.335938 17.855469 23.84375 C 17.953125 23.351562 18.097656 22.875 18.289062 22.414062 C 18.480469 21.953125 18.714844 21.511719 18.992188 21.097656 C 19.269531 20.679688 19.585938 20.292969 19.941406 19.941406 C 20.292969 19.585938 20.679688 19.269531 21.097656 18.992188 C 21.511719 18.714844 21.953125 18.480469 22.414062 18.289062 C 22.875 18.097656 23.351562 17.953125 23.84375 17.855469 C 24.335938 17.757812 24.832031 17.707031 25.332031 17.707031 C 25.832031 17.707031 26.328125 17.757812 26.816406 17.855469 C 27.308594 17.953125 27.785156 18.097656 28.25 18.289062 C 28.710938 18.480469 29.148438 18.714844 29.566406 18.992188 C 29.980469 19.269531 30.367188 19.585938 30.722656 19.941406 C 31.074219 20.292969 31.390625 20.679688 31.667969 21.097656 C 31.949219 21.511719 32.183594 21.953125 32.375 22.414062 C 32.566406 22.875 32.710938 23.351562 32.808594 23.84375 C 32.90625 24.335938 32.953125 24.832031 32.953125 25.332031 Z M 32.953125 25.332031 " fill-opacity="1" fill-rule="nonzero"/></g><path fill="#ffffff" d="M 21.871094 25.332031 L 22.96875 23.953125 C 23.078125 23.820312 23.121094 23.671875 23.101562 23.5 C 23.082031 23.332031 23.007812 23.195312 22.871094 23.089844 C 22.738281 22.980469 22.589844 22.9375 22.421875 22.957031 C 22.25 22.976562 22.113281 23.054688 22.007812 23.1875 L 20.601562 24.945312 C 20.511719 25.058594 20.46875 25.1875 20.46875 25.332031 C 20.46875 25.472656 20.511719 25.601562 20.601562 25.714844 L 22.007812 27.472656 C 22.113281 27.605469 22.25 27.679688 22.417969 27.699219 C 22.585938 27.71875 22.738281 27.671875 22.871094 27.566406 C 23.003906 27.460938 23.078125 27.324219 23.097656 27.15625 C 23.117188 26.988281 23.074219 26.839844 22.96875 26.707031 Z M 21.871094 25.332031 " fill-opacity="1" fill-rule="nonzero"/><path fill="#ffffff" d="M 30.058594 24.945312 L 28.648438 23.183594 C 28.542969 23.050781 28.40625 22.972656 28.234375 22.953125 C 28.066406 22.933594 27.914062 22.976562 27.78125 23.085938 C 27.644531 23.191406 27.570312 23.328125 27.550781 23.5 C 27.535156 23.671875 27.578125 23.820312 27.6875 23.953125 L 28.789062 25.332031 L 27.6875 26.707031 C 27.582031 26.839844 27.539062 26.988281 27.554688 27.160156 C 27.574219 27.328125 27.652344 27.464844 27.785156 27.570312 C 27.917969 27.679688 28.066406 27.722656 28.238281 27.703125 C 28.40625 27.683594 28.542969 27.609375 28.648438 27.476562 L 30.058594 25.714844 C 30.148438 25.601562 30.195312 25.472656 30.195312 25.332031 C 30.195312 25.1875 30.148438 25.058594 30.058594 24.945312 Z M 30.058594 24.945312 " fill-opacity="1" fill-rule="nonzero"/><path fill="#ffffff" d="M 25.136719 23.433594 L 24.328125 26.953125 C 24.234375 27.324219 24.546875 27.714844 24.929688 27.707031 C 25.074219 27.707031 25.203125 27.664062 25.3125 27.574219 C 25.425781 27.484375 25.5 27.367188 25.53125 27.226562 L 26.335938 23.707031 C 26.5 22.914062 25.335938 22.644531 25.136719 23.433594 Z M 25.136719 23.433594 " fill-opacity="1" fill-rule="nonzero"/><path fill="#ffffff" d="M 36.152344 34.886719 C 36.152344 35.050781 36.09375 35.191406 35.976562 35.308594 C 35.859375 35.425781 35.722656 35.484375 35.558594 35.484375 C 35.394531 35.484375 35.253906 35.425781 35.136719 35.308594 C 35.019531 35.191406 34.960938 35.050781 34.960938 34.886719 C 34.960938 34.722656 35.019531 34.585938 35.136719 34.46875 C 35.253906 34.351562 35.394531 34.292969 35.558594 34.292969 C 35.722656 34.292969 35.859375 34.351562 35.976562 34.46875 C 36.09375 34.585938 36.152344 34.722656 36.152344 34.886719 Z M 36.152344 34.886719 " fill-opacity="1" fill-rule="nonzero"/></svg>